<?xml version="1.0" encoding="utf-8"?>
<!-- Generator: Adobe Illustrator 25.2.1, SVG Export Plug-In . SVG Version: 6.00 Build 0)  -->
<svg version="1.1" id="Layer_1" xmlns="http://www.w3.org/2000/svg" xmlns:xlink="http://www.w3.org/1999/xlink" x="0px" y="0px"
	 viewBox="0 0 56.7 56.7" style="enable-background:new 0 0 56.7 56.7;" xml:space="preserve">
<style type="text/css">
	.st0{fill-rule:evenodd;clip-rule:evenodd;fill:#003500;}
</style>
<g>
	<path class="st0" d="M5,44.6c-1.7,4.1-4,8-4.6,12.1l2.4-0.2c3.7-10.9,7.1-18.2,14.4-27.3c5.5-6.8,11.4-12.3,19.1-16.6
		c4.1-2.3,9.3-4.8,13.9-5.5C51.4,6.9,52.7,6.9,54,7c-14.5,3.3-26,11-35.1,22.5c-3.7,4.7-7,9.9-10,15.4l5.5,1l-2.3-1.1l8.2-1.3
		c-3-1.1-6.1-0.7-7-1.9c8.4-0.4,15.4-2.2,20.3-5.7c-1.8-0.3-3.9-0.5-5-1c8.2-2.8,12.9-7.7,18.9-12.1c-7.8,1.6-15,1.4-17.1-0.1
		c13.7,1,22.6-2.8,25.6-12.4c0.3-1,0.3-2.1,0.2-3.1C55.2,0.3,43-2,39.1,3.6c-0.8,1.1-1.9,2.1-2.8,3.5L40,0
		C29.9,3.4,29.1,7.2,23.9,18.5c0.4-3.4,1.4-6.6,2.6-9.5C13.9,13.8,9.7,26.1,9,36.5c-0.4-3.6,0.3-8.2,1.6-13.3
		c-3.7,3.7-6.2,8-5.3,14.2l-1.7-0.8L4.5,40L2,38.8L5,44.6L5,44.6z"/>
</g>
</svg>
