<?xml version="1.0" encoding="utf-8"?>
<!-- Generator: Adobe Illustrator 25.2.1, SVG Export Plug-In . SVG Version: 6.00 Build 0)  -->
<svg version="1.1" id="Layer_1" xmlns="http://www.w3.org/2000/svg" xmlns:xlink="http://www.w3.org/1999/xlink" x="0px" y="0px"
	 viewBox="0 0 56.7 56.7" style="enable-background:new 0 0 56.7 56.7;" xml:space="preserve">
<style type="text/css">
	.st0{fill:#003500;}
</style>
<g>
	<g>
		<path class="st0" d="M52.5,16.2l-5.2-3.7l1.7,9.8c0.4,2.1-0.3,4.2-1.8,5.7L25.4,49.8c-0.2,0.2-0.3,0.3-0.5,0.5v1.1
			c0,2.9,2.4,5.3,5.3,5.3h19.2c2.9,0,5.3-2.4,5.3-5.3V20.6C54.7,18.8,53.9,17.2,52.5,16.2z"/>
		<path class="st0" d="M47.9,22.6l-2-11.6c-0.2-0.9-0.6-1.7-1.1-2.4L52.4,1c0.2-0.2,0.2-0.6,0-0.8c-0.2-0.2-0.6-0.2-0.8,0l-7.7,7.7
			c-0.7-0.6-1.5-0.9-2.4-1.1L30,4.7c-1.7-0.3-3.5,0.3-4.7,1.5L3.5,28c-1,1-1.6,2.3-1.6,3.8c0,1.4,0.6,2.8,1.6,3.8l13.6,13.6
			c1,1,2.3,1.6,3.8,1.6c1.4,0,2.8-0.6,3.8-1.6l21.8-21.8C47.6,26,48.2,24.3,47.9,22.6z M22.1,35.4l-5.4,1c0,0-0.1,0-0.1,0
			c-0.1,0-0.3-0.1-0.4-0.2c-0.1-0.1-0.2-0.3-0.2-0.5l1-5.4c0.1-0.3,0.3-0.5,0.7-0.4c0.3,0.1,0.5,0.3,0.4,0.6l-0.9,4.6l4.6-0.9
			c0.3-0.1,0.6,0.1,0.6,0.4C22.6,35.1,22.4,35.4,22.1,35.4z M26.7,37.3c-0.1,0-0.1,0-0.2,0c-0.2,0-0.4-0.1-0.5-0.3l-6.5-14.8
			c-0.1-0.3,0-0.6,0.3-0.7c0.3-0.1,0.6,0,0.7,0.3L27,36.5C27.1,36.8,27,37.1,26.7,37.3z M30.3,22.9l-1,5.4c-0.1,0.3-0.3,0.5-0.5,0.5
			c0,0-0.1,0-0.1,0c-0.3-0.1-0.5-0.3-0.4-0.6l0.9-4.6l-4.6,0.9c-0.3,0.1-0.6-0.1-0.6-0.4c-0.1-0.3,0.1-0.6,0.4-0.6l5.4-1
			c0.2,0,0.4,0,0.5,0.2C30.3,22.5,30.4,22.7,30.3,22.9z"/>
	</g>
</g>
</svg>
