<?xml version="1.0" encoding="utf-8"?>
<!-- Generator: Adobe Illustrator 25.2.1, SVG Export Plug-In . SVG Version: 6.00 Build 0)  -->
<svg version="1.1" id="Layer_1" xmlns="http://www.w3.org/2000/svg" xmlns:xlink="http://www.w3.org/1999/xlink" x="0px" y="0px"
	 viewBox="0 0 56.7 56.7" style="enable-background:new 0 0 56.7 56.7;" xml:space="preserve">
<style type="text/css">
	.st0{fill-rule:evenodd;clip-rule:evenodd;fill:#003500;}
</style>
<path class="st0" d="M56.7,15.3v33.8c0,1-0.4,1.9-1.1,2.6c-0.7,0.7-1.6,1.1-2.6,1.1H3.7c-1,0-1.9-0.4-2.6-1.1C0.4,51,0,50,0,49.1
	V15.3L56.7,15.3z M35.3,45.1c0.1,0,0.3-0.1,0.4-0.2l13.9-13.9c0.5-0.5,0.8-1.2,0.8-1.9c0-0.7-0.3-1.4-0.8-1.9l-4.2-4.2
	c-0.5-0.5-1.2-0.8-1.9-0.8c-0.7,0-1.4,0.3-1.9,0.8L27.6,36.8c-0.1,0.1-0.2,0.2-0.2,0.4l-1.7,7.5c-0.1,0.6,0,1.2,0.5,1.6
	c0.4,0.4,1,0.6,1.6,0.5L35.3,45.1L35.3,45.1z M28.6,38.8l5.1,5.1l-6.2,1.4c-0.1,0-0.2,0-0.2-0.1c-0.1-0.1-0.1-0.1-0.1-0.2L28.6,38.8
	z M40.7,25.9l2.4,2.4L31.6,39.8l-2.4-2.4L40.7,25.9z M47.7,30.7l-5.9-5.9l0.9-0.9c0.2-0.2,0.5-0.4,0.9-0.4c0.3,0,0.6,0.1,0.9,0.4
	l4.2,4.2c0.2,0.2,0.4,0.5,0.4,0.9c0,0.3-0.1,0.6-0.4,0.9L47.7,30.7z M35.1,43.3l-2.4-2.4l11.5-11.5l2.4,2.4L35.1,43.3z M6.6,21.2
	h27.6c0.4,0,0.7-0.3,0.7-0.7s-0.3-0.7-0.7-0.7H6.6c-0.4,0-0.7,0.3-0.7,0.7S6.2,21.2,6.6,21.2z M6.6,29.1h15.8c0.4,0,0.7-0.3,0.7-0.7
	s-0.3-0.7-0.7-0.7H6.6c-0.4,0-0.7,0.3-0.7,0.7S6.2,29.1,6.6,29.1z M6.6,33h15.8c0.4,0,0.7-0.3,0.7-0.7c0-0.4-0.3-0.7-0.7-0.7H6.6
	c-0.4,0-0.7,0.3-0.7,0.7C5.9,32.7,6.2,33,6.6,33z M6.6,25.1h27.6c0.4,0,0.7-0.3,0.7-0.7s-0.3-0.7-0.7-0.7H6.6
	c-0.4,0-0.7,0.3-0.7,0.7S6.2,25.1,6.6,25.1z M0,13.8V7.6c0-1,0.4-1.9,1.1-2.6c0.7-0.7,1.6-1.1,2.6-1.1H53c1,0,1.9,0.4,2.6,1.1
	c0.7,0.7,1.1,1.6,1.1,2.6v6.2H0z M17.5,8.1c-0.8,0-1.5,0.7-1.5,1.5s0.7,1.5,1.5,1.5S19,10.4,19,9.6S18.3,8.1,17.5,8.1z M5.7,8.1
	c-0.8,0-1.5,0.7-1.5,1.5s0.7,1.5,1.5,1.5s1.5-0.7,1.5-1.5S6.5,8.1,5.7,8.1z M11.6,8.1c-0.8,0-1.5,0.7-1.5,1.5s0.7,1.5,1.5,1.5
	s1.5-0.7,1.5-1.5S12.4,8.1,11.6,8.1z"/>
</svg>
