<?xml version="1.0" encoding="utf-8"?>
<!-- Generator: Adobe Illustrator 25.2.1, SVG Export Plug-In . SVG Version: 6.00 Build 0)  -->
<svg version="1.1" id="Layer_1" xmlns="http://www.w3.org/2000/svg" xmlns:xlink="http://www.w3.org/1999/xlink" x="0px" y="0px"
	 viewBox="0 0 56.7 56.7" style="enable-background:new 0 0 56.7 56.7;" xml:space="preserve">
<style type="text/css">
	.st0{fill:#003500;}
</style>
<path class="st0" d="M49,3.9H7.7C3.5,3.9,0,7.3,0,11.6v25.8c0,4.3,3.5,7.7,7.7,7.7h9.2c1.4,0,2.7,0.5,3.6,1.5l5.1,5.1
	c1.5,1.5,4,1.5,5.5,0l5.1-5.1c1-1,2.3-1.5,3.6-1.5H49c4.3,0,7.7-3.5,7.7-7.7V11.6C56.7,7.3,53.2,3.9,49,3.9L49,3.9z M34.8,34.8H12.9
	c-0.7,0-1.3-0.6-1.3-1.3c0-0.7,0.6-1.3,1.3-1.3h21.9c0.7,0,1.3,0.6,1.3,1.3C36.1,34.2,35.5,34.8,34.8,34.8z M43.8,25.8H12.9
	c-0.7,0-1.3-0.6-1.3-1.3s0.6-1.3,1.3-1.3h30.9c0.7,0,1.3,0.6,1.3,1.3S44.5,25.8,43.8,25.8z M43.8,16.8H12.9c-0.7,0-1.3-0.6-1.3-1.3
	c0-0.7,0.6-1.3,1.3-1.3h30.9c0.7,0,1.3,0.6,1.3,1.3C45.1,16.2,44.5,16.8,43.8,16.8z"/>
</svg>
