<?xml version="1.0" encoding="utf-8"?>
<!-- Generator: Adobe Illustrator 25.2.1, SVG Export Plug-In . SVG Version: 6.00 Build 0)  -->
<svg version="1.1" id="Layer_1" xmlns="http://www.w3.org/2000/svg" xmlns:xlink="http://www.w3.org/1999/xlink" x="0px" y="0px"
	 viewBox="0 0 56.7 56.7" style="enable-background:new 0 0 56.7 56.7;" xml:space="preserve">
<style type="text/css">
	.st0{fill:#003500;}
</style>
<path class="st0" d="M44.7,0H15.4C9.8,0,5.3,4.6,5.3,10.2v2.7H3.5c-0.9,0-1.7,0.7-1.7,1.7c0,0.9,0.8,1.7,1.7,1.7h6.9
	c0.9,0,1.7-0.8,1.7-1.7c0-0.2-0.1-0.5-0.2-0.7c0.6,0.3,1,0.8,1,1.5c0,0.9-0.7,1.7-1.7,1.7h-6v9.7H3.5c-0.9,0-1.7,0.8-1.7,1.7
	c0,0.9,0.8,1.7,1.7,1.7h6.9c0.9,0,1.7-0.8,1.7-1.7c0-0.2-0.1-0.5-0.2-0.7c0.6,0.3,1,0.8,1,1.5c0,0.9-0.7,1.7-1.7,1.7h-6v9.7H3.5
	c-0.9,0-1.7,0.8-1.7,1.7s0.8,1.7,1.7,1.7h6.9c0.9,0,1.7-0.7,1.7-1.7c0-0.2-0.1-0.5-0.2-0.7c0.6,0.3,1,0.8,1,1.5
	c0,0.9-0.7,1.7-1.7,1.7h-6v1.8c0,5.6,4.6,10.2,10.2,10.2h29.3c5.6,0,10.2-4.6,10.2-10.2V10.2C54.9,4.6,50.3,0,44.7,0L44.7,0z
	 M42.2,42.2c0,0.5-0.4,0.8-0.8,0.8H20.5c-0.5,0-0.8-0.4-0.8-0.8v-4.7c0-4.4,2.9-8.1,7-9.3c-2.2-1.4-3.6-3.9-3.6-6.6
	c0-4.4,3.6-7.9,7.9-7.9s7.9,3.6,7.9,7.9c0,2.8-1.4,5.2-3.6,6.6c4,1.2,7,4.9,7,9.3L42.2,42.2L42.2,42.2z"/>
</svg>
