<?xml version="1.0" encoding="utf-8"?>
<!-- Generator: Adobe Illustrator 25.2.1, SVG Export Plug-In . SVG Version: 6.00 Build 0)  -->
<svg version="1.1" id="Layer_1" xmlns="http://www.w3.org/2000/svg" xmlns:xlink="http://www.w3.org/1999/xlink" x="0px" y="0px"
	 viewBox="0 0 56.7 56.7" style="enable-background:new 0 0 56.7 56.7;" xml:space="preserve">
<style type="text/css">
	.st0{display:none;}
	.st1{display:inline;}
	.st2{fill:#003500;}
</style>
<g class="st0">
	<g class="st1">
		<g>
			<path d="M236.4-13.7l-18,0l0-36l18,0c14.9,0,27-12.1,27-27v-72c0-14.9-12.1-27-27-27h-18v-36h18c34.7,0,63,28.3,63,63v72
				C299.4-41.9,271.2-13.7,236.4-13.7L236.4-13.7z"/>
			<path d="M-277.7,113.9c0,24.9,20,45,44.6,45h522.7c24.7,0,44.6-20.1,44.6-45H-277.7z"/>
			<path d="M-17.3-387.4c20.2,60.6-32,76.7-32,76.7l-0.2,0.4c0.5-0.9,12.6-22.1-1.9-65.7c-20.2-60.6,32-76.7,32-76.7l0.2-0.4
				C-19.7-452.3-31.8-431-17.3-387.4z"/>
			<path d="M45.4-387.4c20.2,60.6-32,76.7-32,76.7l-0.2,0.4c0.5-0.9,12.6-22.1-1.9-65.7c-20.2-60.6,32-76.7,32-76.7l0.2-0.4
				C43-452.3,30.9-431,45.4-387.4z"/>
			<path d="M108.1-387.4c20.2,60.6-32,76.7-32,76.7l-0.2,0.4c0.5-0.9,12.6-22.1-1.9-65.7c-20.2-60.6,32-76.7,32-76.7l0.2-0.4
				C105.7-452.3,93.6-431,108.1-387.4z"/>
			<path d="M-142.6-274.6V13.3c0,39.8,32.2,72,72,72h197.9c39.8,0,72-32.2,72-72v-287.9H-142.6z M145.3,4.3c0,5-4,9-9,9
				c-5,0-9-4-9-9v-233.9c0-5,4-9,9-9c5,0,9,4,9,9V4.3z"/>
		</g>
		<text transform="matrix(1 0 0 1 -277.6545 250.6502)" style="font-family:'Arial-BoldMT'; font-size:30.6006px;">Created by Olivier Guin</text>
		<text transform="matrix(1 0 0 1 -277.6545 281.2528)" style="font-family:'Arial-BoldMT'; font-size:30.6006px;">from the Noun Project</text>
	</g>
	<g class="st1">
		<g>
			<path d="M84.1-272.2c-2.8,0-5-2.2-5-5v-19.2c0-2.8-2.2-5-5-5h-309c-2.8,0-5,2.2-5,5v19.2c0,2.8,0,5.2,0,5.5c0,0.3,0,2.7,0,5.5
				v10.3c0,2.8,2.2,5,5,5H59.5c2.8,0,5,2.2,5,5v19.2c0,2.8,2.2,5,5,5h231.5c2.8,0,5,2.2,5,5V63.8c0,2.8,2.2,5,5,5h4.6
				c2.8,0,5-2.2,5-5v-331c0-2.8-2.2-5-5-5H84.1z"/>
		</g>
		<path d="M287.1-208.6H55.6c-2.8,0-5-2.2-5-5v-19.2c0-2.8-2.2-5-5-5h-309c-2.8,0-5,2.2-5,5v19.2c0,2.8,0,5.2,0,5.5
			c0,0.3,0,2.7,0,5.5v330c0,2.7,2.2,5,5,5h30.8c2.8,0,5-0.3,5-0.6c0,0,0,0,0-0.3c0-26.3,16.5-47.6,36.8-47.6
			c20.3,0,36.8,21.3,36.8,47.6c0,0.3,0,0.3,0,0.3c0,0.3,2.2,0.6,5,0.6h318.3c2.8,0,5-0.3,5-0.6c0,0,0,0,0-0.3
			c0-26.3,16.5-47.6,36.8-47.6c20.3,0,36.8,21.3,36.8,47.6c0,0.3,0,0.3,0,0.3c0,0.3,2.2,0.6,5,0.6h34.4c2.8,0,5-2.2,5-5v-331
			C292.1-206.4,289.8-208.6,287.1-208.6z M-94.1,0.3h-132c0-0.1,0-0.2,0-0.4c0-36,17.4-66.8,42-79.1c-8.4-7.2-13.8-17.9-13.8-29.8
			c0-21.7,17.6-39.2,39.2-39.2s39.2,17.6,39.2,39.2c0,12.4-5.8,23.5-14.8,30.7c23.6,12.9,40.2,43.1,40.2,78.2
			C-94.1,0-94.1,0.1-94.1,0.3z M-12.6-71.2v-8.9c0-2.8,2.2-5,5-5h106c2.8,0,5,2.2,5,5v8.9c0,2.8-2.2,5-5,5h-106
			C-10.3-66.2-12.6-68.4-12.6-71.2z M259.1-26.9c0,2.8-2.2,5-5,5H82c-2.8,0-5-2.2-5-5v-6.3c0-2.8,2.2-5,5-5h172c2.8,0,5,2.2,5,5
			V-26.9z M259.1-71.2c0,2.8-2.2,5-5,5H125.4c-2.8,0-5-2.2-5-5v-8.9c0-2.8,2.2-5,5-5h128.6c2.8,0,5,2.2,5,5V-71.2z M262.9-119.3
			c0,2.8-2.2,5-5,5H-7.6c-2.8,0-5-2.2-5-5v-6c0-2.8,2.2-5,5-5h265.4c2.8,0,5,2.2,5,5L262.9-119.3L262.9-119.3z"/>
	</g>
</g>
<path class="st2" d="M21.5,37.4c-4.3-6.4-9.8-14.3-9.9-14.5l-0.7-1.1c-2.4-3.5-0.8-8.8,3.6-11.7c4.4-2.9,9.9-2.5,12.2,1.1l0.7,1.1
	c0.1,0.2,5.5,8.2,9.8,14.6l5.9-4c-3.8-5.7-9.8-14.6-10-15l-1.3-2C27.4-0.8,17.5-1.9,9.7,3.3C2,8.5-0.7,18.1,3.8,24.7l1.3,2
	c0.3,0.4,6.3,9.2,10.2,14.9L21.5,37.4z"/>
<path class="st2" d="M37.7,27.5c1,1.5,2,2.9,2.7,4.1l5.9-4c-0.1-0.2-1.2-1.8-2.7-4.1L37.7,27.5z"/>
<path class="st2" d="M15.7,42.3c1.5,2.2,2.7,3.9,2.8,4l6.2-4.2c-0.8-1.1-1.7-2.5-2.8-4L15.7,42.3z"/>
<polygon class="st2" points="45.9,30 48.3,34.1 44.9,33.1 50,39.4 46.3,39.2 52.5,45.8 44.3,38.6 48,38.5 43.2,32.4 46.8,32.9 "/>
<polygon class="st2" points="21.3,48.6 25.6,50.5 24.2,47.2 31.2,51.4 30.4,47.7 37.8,52.9 29.6,45.8 30,49.6 23.3,45.6 24.2,49.1 
	"/>
<polygon class="st2" points="24.8,54.7 28.9,55.6 27.7,51.8 33.6,54.7 28.9,53.4 29.6,56.7 "/>
<polygon class="st2" points="51.7,33.2 53.8,36.8 49.6,36.7 54.1,41.6 51.6,37.4 55.1,37.2 "/>
</svg>
