<?xml version="1.0" encoding="utf-8"?>
<!-- Generator: Adobe Illustrator 25.2.1, SVG Export Plug-In . SVG Version: 6.00 Build 0)  -->
<svg version="1.1" id="Layer_1" xmlns="http://www.w3.org/2000/svg" xmlns:xlink="http://www.w3.org/1999/xlink" x="0px" y="0px"
	 viewBox="0 0 56.7 56.7" style="enable-background:new 0 0 56.7 56.7;" xml:space="preserve">
<style type="text/css">
	.st0{fill:#003500;}
</style>
<path class="st0" d="M53.9,7.1h-51C1.3,7.1,0,8.4,0,9.9v36.9c0,1.6,1.3,2.8,2.8,2.8h51c1.6,0,2.8-1.3,2.8-2.8V9.9
	C56.7,8.4,55.4,7.1,53.9,7.1z M18.9,43.9c0,0.5-0.4,0.9-0.9,0.9H5.7c-0.5,0-0.9-0.4-0.9-0.9v-2.6c0-0.5,0.4-0.9,0.9-0.9H18
	c0.5,0,0.9,0.4,0.9,0.9V43.9z M18.9,15.3c0,0.5-0.4,0.9-0.9,0.9H5.7c-0.5,0-0.9-0.4-0.9-0.9v-2.6c0-0.5,0.4-0.9,0.9-0.9H18
	c0.5,0,0.9,0.4,0.9,0.9V15.3z M35.4,43.9c0,0.5-0.4,0.9-0.9,0.9H22.2c-0.5,0-0.9-0.4-0.9-0.9v-2.6c0-0.5,0.4-0.9,0.9-0.9h12.3
	c0.5,0,0.9,0.4,0.9,0.9V43.9z M34.2,30.7l-9.8,5.7c-0.3,0.2-0.7,0.3-1,0.3c-0.4,0-0.8-0.1-1.2-0.4c-0.7-0.5-1-1.3-1-2.2V22.7
	c0-0.9,0.4-1.7,1-2.2c0.7-0.5,1.5-0.5,2.2-0.1l9.8,5.7c0.7,0.4,1.2,1.3,1.2,2.3S35,30.2,34.2,30.7L34.2,30.7z M35.4,15.3
	c0,0.5-0.4,0.9-0.9,0.9H22.2c-0.5,0-0.9-0.4-0.9-0.9v-2.6c0-0.5,0.4-0.9,0.9-0.9h12.3c0.5,0,0.9,0.4,0.9,0.9V15.3z M52,43.9
	c0,0.5-0.4,0.9-0.9,0.9H38.7c-0.5,0-0.9-0.4-0.9-0.9v-2.6c0-0.5,0.4-0.9,0.9-0.9H51c0.5,0,0.9,0.4,0.9,0.9V43.9z M52,15.3
	c0,0.5-0.4,0.9-0.9,0.9H38.7c-0.5,0-0.9-0.4-0.9-0.9v-2.6c0-0.5,0.4-0.9,0.9-0.9H51c0.5,0,0.9,0.4,0.9,0.9V15.3z"/>
</svg>
