<?xml version="1.0" encoding="utf-8"?>
<!-- Generator: Adobe Illustrator 25.2.1, SVG Export Plug-In . SVG Version: 6.00 Build 0)  -->
<svg version="1.1" id="Layer_1" xmlns="http://www.w3.org/2000/svg" xmlns:xlink="http://www.w3.org/1999/xlink" x="0px" y="0px"
	 viewBox="0 0 56.7 56.7" style="enable-background:new 0 0 56.7 56.7;" xml:space="preserve">
<style type="text/css">
	.st0{fill:#003500;}
</style>
<path class="st0" d="M2.3,0.3h20.5c0.6,0,1.2,0.2,1.6,0.7c0.4,0.4,0.7,1,0.7,1.6V23c0,1.3-1,2.3-2.3,2.3H2.3c-0.6,0-1.2-0.2-1.6-0.7
	l0-0.1C0.2,24.1,0,23.6,0,23V2.6C0,1.3,1,0.3,2.3,0.3z M33.9,31.4h20.5c1.3,0,2.3,1,2.3,2.3v20.4c0,1.3-1,2.3-2.3,2.3H33.9
	c-0.6,0-1.2-0.2-1.6-0.7l0-0.1c-0.4-0.4-0.6-1-0.6-1.6V33.7c0-0.6,0.2-1.2,0.7-1.6l0,0C32.8,31.7,33.3,31.4,33.9,31.4L33.9,31.4z
	 M2.3,31.4h20.5c0.6,0,1.2,0.2,1.6,0.7c0.4,0.4,0.7,1,0.7,1.6v20.4c0,1.3-1,2.3-2.3,2.3H2.3c-0.6,0-1.2-0.2-1.6-0.7l0-0.1
	c-0.4-0.4-0.6-1-0.6-1.6V33.7C0,32.5,1,31.4,2.3,31.4L2.3,31.4z M33.9,0.3h20.5c1.3,0,2.3,1,2.3,2.3V23c0,1.3-1,2.3-2.3,2.3H33.9
	c-1.3,0-2.3-1-2.3-2.3V2.6c0-0.6,0.3-1.2,0.7-1.6l0,0C32.8,0.5,33.3,0.3,33.9,0.3z"/>
</svg>
