<?xml version="1.0" encoding="utf-8"?>
<!-- Generator: Adobe Illustrator 25.2.1, SVG Export Plug-In . SVG Version: 6.00 Build 0)  -->
<svg version="1.1" id="Layer_1" xmlns="http://www.w3.org/2000/svg" xmlns:xlink="http://www.w3.org/1999/xlink" x="0px" y="0px"
	 viewBox="0 0 56.7 56.7" style="enable-background:new 0 0 56.7 56.7;" xml:space="preserve">
<style type="text/css">
	.st0{fill:#003500;}
</style>
<g>
	<g>
		<path class="st0" d="M10,36.4l4.4-4.4l-1.2-0.2c-0.4-0.1-0.8-0.5-0.7-1c0.1-0.4,0.5-0.8,1-0.7l2.4,0.4l2.7-2.7L14.1,27
			c-0.4-0.1-0.8-0.5-0.7-1c0.1-0.4,0.5-0.8,1-0.7l5.7,1l2.7-2.7l-7.9-1.4c-0.4-0.1-0.8-0.5-0.7-1c0.1-0.4,0.5-0.8,1-0.7l9,1.6
			l3.8-3.8c0.4-0.4,1.2-0.7,1.8-0.7c0.5,0,0.8,0.1,2.8,0.5l1-5.4c0.1-0.3,0-0.5-0.3-0.8l-7.1-6.6l-1,5.2c0.9,0.9,1.3,2.2,1.1,3.5
			c-0.4,2.2-2.5,3.7-4.7,3.3c-2.2-0.4-3.7-2.5-3.3-4.7c0.2-1.2,1-2.2,1.9-2.7l1-5.2l-8.7,3.6c-0.3,0.1-0.4,0.4-0.5,0.6L7.6,33.7
			c-0.3,1.2,0.6,2.4,1.9,2.7L10,36.4z"/>
		<path class="st0" d="M22.3,13.3c0.1,0,0.1,0,0.2,0c0.4,0,0.8-0.3,0.8-0.7l2-11.6c0.1-0.4-0.3-0.9-0.7-1c-0.4-0.1-0.9,0.3-1,0.7
			l-2,11.6C21.6,12.9,21.9,13.3,22.3,13.3z"/>
		<path class="st0" d="M42.3,14.9c-5.3-0.8-8.6,4.9-7.5,10.1c0.4,2,0.8,3.5,1.1,4.5c0.1,0.4,0.4,0.6,0.8,0.6c0.1,0,0.2,0,0.3,0
			c0.4-0.2,0.7-0.6,0.5-1.1c-0.3-0.9-0.6-2.4-1.1-4.3c-0.8-4.1,1.5-8.8,5.6-8.1c3.5,0.5,6.7,4.8,5,11.4c-0.1,0.4,0.2,0.9,0.6,1.1
			c0.4,0.1,0.9-0.2,1.1-0.6C50.6,20.7,46.6,15.6,42.3,14.9z"/>
		<path class="st0" d="M16,40.8l9.1,9l8-8l-9.1-9L16,40.8z M26.7,45.8c-0.4,0.4-0.9,0.4-1.2,0l-5.4-5.4c-0.4-0.4-0.4-0.9,0-1.2
			c0.4-0.4,0.9-0.4,1.2,0l5.4,5.4C27.1,45,27.1,45.5,26.7,45.8z M29,43.6c-0.4,0.4-0.9,0.4-1.2,0l-5.4-5.4c-0.4-0.4-0.4-0.9,0-1.2
			c0.4-0.4,0.9-0.4,1.2,0l5.4,5.4C29.3,42.7,29.3,43.2,29,43.6z"/>
		<path class="st0" d="M43.9,22.8c-0.1-0.4-0.4-0.5-0.6-0.6l-5-1.1c-0.5,1.7-0.3,3,0.1,4.7c0.4,0.2,0.8,0.4,1.2,0.8
			c1.6,1.6,1.6,4.2,0,5.8c-1.6,1.6-4.2,1.6-5.8,0c-1.5-1.5-1.6-3.8-0.3-5.4c-0.4-2.2-0.9-4.2-0.2-6.9l-3.2-0.7
			c-0.3-0.1-0.5,0-0.8,0.3L10,38.8c-1,1-1,2.5,0,3.5L23.7,56c1,1,2.5,1,3.5,0l19.4-19.3c0.2-0.2,0.3-0.5,0.3-0.8L43.9,22.8z
			 M34.3,43.1l-8,8c-0.6,0.6-1.7,0.6-2.3,0L14.9,42c-0.6-0.6-0.6-1.7,0-2.3l8-8c0.6-0.6,1.7-0.6,2.3,0l9.1,9.1
			C35,41.4,35,42.5,34.3,43.1z"/>
	</g>
</g>
</svg>
