<?xml version="1.0" encoding="utf-8"?>
<!-- Generator: Adobe Illustrator 25.2.1, SVG Export Plug-In . SVG Version: 6.00 Build 0)  -->
<svg version="1.1" id="Layer_1" xmlns="http://www.w3.org/2000/svg" xmlns:xlink="http://www.w3.org/1999/xlink" x="0px" y="0px"
	 viewBox="0 0 56.7 56.7" style="enable-background:new 0 0 56.7 56.7;" xml:space="preserve">
<style type="text/css">
	.st0{fill:#003500;}
</style>
<path class="st0" d="M49.9,9.4c0-0.4-0.1-0.7-0.4-0.9l-8.1-8.1C41.2,0.1,40.9,0,40.5,0H8.1C7.4,0,6.7,0.7,6.7,1.3v54
	c0,0.7,0.7,1.3,1.3,1.3h40.5c0.7,0,1.3-0.7,1.3-1.3L49.9,9.4z M40.5,41.8H16.2c-0.7,0-1.3-0.7-1.3-1.3s0.7-1.3,1.3-1.3h24.3
	c0.7,0,1.3,0.7,1.3,1.3S41.2,41.8,40.5,41.8z M40.5,33.7H16.2c-0.7,0-1.3-0.7-1.3-1.3c0-0.7,0.7-1.3,1.3-1.3h24.3
	c0.7,0,1.3,0.7,1.3,1.3C41.8,33.1,41.2,33.7,40.5,33.7z M40.5,25.6H16.2c-0.7,0-1.3-0.7-1.3-1.3s0.7-1.3,1.3-1.3h24.3
	c0.7,0,1.3,0.7,1.3,1.3S41.2,25.6,40.5,25.6z M40.5,17.5H16.2c-0.7,0-1.3-0.7-1.3-1.3s0.7-1.3,1.3-1.3h24.3c0.7,0,1.3,0.7,1.3,1.3
	S41.2,17.5,40.5,17.5z M41.8,8.1V4.6l3.5,3.5H41.8z"/>
</svg>
