<?xml version="1.0" encoding="utf-8"?>
<!-- Generator: Adobe Illustrator 25.2.1, SVG Export Plug-In . SVG Version: 6.00 Build 0)  -->
<svg version="1.1" id="Layer_1" xmlns="http://www.w3.org/2000/svg" xmlns:xlink="http://www.w3.org/1999/xlink" x="0px" y="0px"
	 viewBox="0 0 56.7 56.7" style="enable-background:new 0 0 56.7 56.7;" xml:space="preserve">
<style type="text/css">
	.st0{fill:#003500;}
</style>
<g>
	<path class="st0" d="M36.7,20.1c-0.7,0.4-1.5,0.1-1.9-0.6c-0.4-0.7-0.1-1.5,0.6-1.9c3.2-1.8,4.7-4,5-6.2c0.2-1.2,0-2.4-0.5-3.5
		c-0.5-1.1-1.2-2.1-2.1-2.9c-1.8-1.6-4.3-2.4-6.9-1.8c-1.1,0.3-2,0.8-2.8,1.5c-0.8,0.8-1.6,1.8-2.2,3c-0.4,0.7-1.2,1-1.9,0.6
		c-0.7-0.4-1-1.2-0.6-1.9c0.8-1.5,1.7-2.8,2.8-3.8c1.1-1.1,2.5-1.8,4-2.2c3.6-0.9,7,0.2,9.4,2.4c1.2,1.1,2.2,2.5,2.8,4
		c0.6,1.5,0.9,3.2,0.6,4.9C42.8,14.8,40.8,17.8,36.7,20.1L36.7,20.1z M26,31.2c-5.3-7.2-5.5-13.9,1-20.2l-4.7-2.6
		c-3.7-1.5-10.6,9.2-7.9,12.1l3.6,5.4l-0.7,1.6c-0.2,0.5,0,0.8,0.5,1l0.5,0.1L8.8,47.2l1.9,4.1l3.8-1.1l1-1.9l-0.9-1.8l2.1-0.4
		l0.5-0.9l-1.1-1.7l0.7-1.4l2.1-0.3l0.7-1.3L18.4,39l0.7-1.4l2.1-0.3l2.9-5.5l0.5,0.3C25.4,32.5,25.9,32.2,26,31.2L26,31.2z
		 M36,35.7l-1.4,5.2l-2,0.8l-0.4,1.5l1.4,1.2l-0.4,1.4l-1.9,0.7L30.9,48l1.4,1.4l-0.3,1l-1.9,0.9l1.3,1.5l-0.5,2l-3.4,1.9l-2.7-3.5
		l5.1-19l-1.2-0.3c-0.3-0.1-0.4-0.3-0.3-0.6l0.5-1.9c-3.7-2.8-5.6-7.7-4.3-12.6c1.7-6.2,7.9-9.9,14.1-8.5c0,0.3,0,0.7,0,1
		c-0.1,0.8-0.5,1.7-1.1,2.5c-0.1,0.1-0.2,0.2-0.3,0.3c-2-0.1-3.8,1.1-4.4,3.1c-0.2,0.9-0.2,1.7,0.1,2.5c0.1,0.3,0.2,0.5,0.3,0.8
		c0.3,0.6,0.8,1.1,1.4,1.3c0.4,0.2,0.8,0.4,1.2,0.6c2.2,0.6,4.5-0.7,5.2-2.9c0.7-0.6,1.3-1.2,1.8-1.9c1-1.3,1.6-2.6,2-3.9
		c2.7,2.9,3.9,7.1,2.8,11.2c-1.3,4.8-5.4,8.1-10,8.7L37,35.4c-0.1,0.3-0.3,0.4-0.6,0.3L36,35.7L36,35.7z"/>
</g>
</svg>
