<?xml version="1.0" encoding="utf-8"?>
<!-- Generator: Adobe Illustrator 25.2.1, SVG Export Plug-In . SVG Version: 6.00 Build 0)  -->
<svg version="1.1" id="Layer_1" xmlns="http://www.w3.org/2000/svg" xmlns:xlink="http://www.w3.org/1999/xlink" x="0px" y="0px"
	 viewBox="0 0 56.7 56.7" style="enable-background:new 0 0 56.7 56.7;" xml:space="preserve">
<style type="text/css">
	.st0{fill:#003500;}
</style>
<path class="st0" d="M51.6,5.8H5.1C2.3,5.8,0,8.1,0,10.9v37.8c0,0.8,0.5,1.6,1.2,1.9c0.3,0.1,0.6,0.2,1,0.2c0.5,0,0.9-0.2,1.3-0.4
	l11-8.3h37.1c2.8,0,5.1-2.3,5.1-5.1V10.9C56.7,8.1,54.4,5.8,51.6,5.8L51.6,5.8z M12.5,23.5c-0.1-0.1-0.2-0.4-0.1-0.6
	c0.1-0.2,0.2-0.3,0.4-0.4l2.4-0.3l1-2.2c0.1-0.2,0.3-0.4,0.5-0.4c0.2,0,0.4,0.1,0.5,0.4l1,2.2l2.4,0.3c0.2,0,0.4,0.2,0.4,0.4
	s0,0.4-0.1,0.6l-1.7,1.8l0.4,2.5c0,0.2,0,0.4-0.2,0.6c-0.2,0.1-0.4,0.1-0.6,0l-2.1-1.2l-2.1,1.2v0c-0.2,0.1-0.4,0.1-0.6,0
	c-0.2-0.1-0.3-0.3-0.2-0.6l0.4-2.5L12.5,23.5z M31.3,27.7c0,0.2,0,0.4-0.2,0.6c-0.2,0.1-0.4,0.1-0.6,0l-2.1-1.2l-2.1,1.2h0
	c-0.2,0.1-0.4,0.1-0.6,0c-0.2-0.1-0.3-0.3-0.2-0.6l0.4-2.5l-1.7-1.8C24,23.3,24,23.1,24,22.9c0.1-0.2,0.2-0.3,0.4-0.4l2.4-0.3l1-2.2
	c0.1-0.2,0.3-0.4,0.5-0.4c0.2,0,0.4,0.1,0.5,0.4l1,2.2l2.4,0.3c0.2,0,0.4,0.2,0.4,0.4c0.1,0.2,0,0.4-0.1,0.6l-1.7,1.8L31.3,27.7z
	 M44.2,23.5l-1.7,1.8l0.4,2.5c0,0.2,0,0.4-0.2,0.6c-0.2,0.1-0.4,0.1-0.6,0L40,27.2l-2.1,1.2h0c-0.2,0.1-0.4,0.1-0.6,0
	c-0.2-0.1-0.3-0.3-0.2-0.6l0.4-2.5l-1.7-1.8h0c-0.1-0.1-0.2-0.4-0.1-0.6c0.1-0.2,0.2-0.3,0.4-0.4l2.4-0.3l1-2.2
	c0.1-0.2,0.3-0.4,0.5-0.4c0.2,0,0.4,0.1,0.5,0.4l1,2.2l2.4,0.3c0.2,0,0.4,0.2,0.4,0.4C44.4,23.1,44.3,23.3,44.2,23.5L44.2,23.5z"/>
</svg>
