<?xml version="1.0" encoding="utf-8"?>
<!-- Generator: Adobe Illustrator 25.2.1, SVG Export Plug-In . SVG Version: 6.00 Build 0)  -->
<svg version="1.1"
	 id="Layer_1" shape-rendering="geometricPrecision" text-rendering="geometricPrecision" image-rendering="optimizeQuality"
	 xmlns="http://www.w3.org/2000/svg" xmlns:xlink="http://www.w3.org/1999/xlink" x="0px" y="0px" viewBox="0 0 56.7 56.7"
	 style="enable-background:new 0 0 56.7 56.7;" xml:space="preserve">
<style type="text/css">
	.st0{fill-rule:evenodd;clip-rule:evenodd;fill:#003500;}
</style>
<path class="st0" d="M42.2,21.3l2,0c0.9,0,1.7,0.8,1.7,1.7l0,1.9c0.9,0.3,1.7,0.7,2.5,1.2l1.4-1.3c0.7-0.6,1.8-0.6,2.4,0l1.4,1.4
	c0.6,0.7,0.6,1.8,0,2.4L52,30.1c0.4,0.8,0.7,1.6,0.9,2.5l2.1,0c0.9,0,1.7,0.8,1.7,1.7l0,2c0,0.9-0.8,1.7-1.7,1.7l-2.2,0
	c-0.2,0.8-0.6,1.7-1,2.4l1.5,1.5c0.6,0.7,0.6,1.8,0,2.4l-1.4,1.4c-0.7,0.6-1.8,0.6-2.4,0l-1.4-1.5c-0.8,0.4-1.6,0.8-2.4,1
	c-0.1-2-0.4-3.6-0.9-4.9c2.2-0.7,3.7-2.7,3.8-5.1c0.1-3-2.4-5.6-5.4-5.6c-2.7-0.1-5,1.8-5.5,4.3c-1-0.4-2-0.7-3-1
	c-0.7-0.2-1.5-0.5-2.2-0.7l0.1,0c0.3-1,0.7-2,1.3-2.9l-1-1c-0.6-0.7-0.6-1.8,0-2.4l1.4-1.4c0.7-0.6,1.8-0.6,2.4,0l1.1,1.1
	c0.9-0.5,1.8-0.8,2.8-1l0-1.7C40.5,22,41.2,21.3,42.2,21.3L42.2,21.3z M15.8,31.4c-1-0.9-1.8-1.5-1.9-3.3l-0.1,0
	c-0.2,0-0.5-0.1-0.7-0.2c-0.4-0.2-0.6-0.5-0.8-0.9c-0.4-0.8-0.6-3,0.3-3.6l-0.2-0.1l0-0.2c0-0.4,0-1-0.1-1.5c0-2-0.1-3.5-1.7-4
	l-0.7-0.2l0.5-0.6c1.3-1.6,2.7-3,4.1-4.1c1.6-1.2,3.2-2.1,4.7-2.3c1.6-0.2,3.1,0.1,4.6,1.3c0.4,0.3,0.8,0.8,1.2,1.2
	c1.5,0.1,2.8,1,3.7,2.1c2.1,2.7,2.2,6.2-0.4,8.6c0.2,0,0.4,0.1,0.6,0.2c0.7,0.4,0.7,1.1,0.5,1.8c-0.2,0.6-0.4,1.2-0.6,1.7
	c-0.3,0.7-0.6,0.9-1.4,0.8c0,1.8-0.9,2.3-2,3.3C25.3,34.2,15.9,33.8,15.8,31.4L15.8,31.4z M15.4,33.2l2.9,7.6l1.5-4.1L19,35.8
	c-0.5-0.8-0.4-1.7,0.6-1.8c0.3-0.1,0.7,0,1.1,0c0.4,0,0.8,0,1.2,0c0.9,0.2,1,1.1,0.6,1.8l-0.7,0.8l1.5,4.1l2.6-7.6
	c6.2,5.6,15.6,2.1,15.6,13.3H0C0,35.7,8.9,38.9,15.4,33.2z"/>
</svg>
