<?xml version="1.0" encoding="utf-8"?>
<!-- Generator: Adobe Illustrator 25.2.1, SVG Export Plug-In . SVG Version: 6.00 Build 0)  -->
<svg version="1.1" id="Layer_1" xmlns="http://www.w3.org/2000/svg" xmlns:xlink="http://www.w3.org/1999/xlink" x="0px" y="0px"
	 viewBox="0 0 56.7 56.7" style="enable-background:new 0 0 56.7 56.7;" xml:space="preserve">
<style type="text/css">
	.st0{fill:#003500;}
</style>
<path class="st0" d="M51.1,8.4h-5.8V5.6c0-3.1-2.5-5.6-5.6-5.6H5.6C2.5,0,0,2.5,0,5.6v34.2c0,3.1,2.5,5.6,5.6,5.6h2.8v5.8
	c0,3.1,2.5,5.6,5.6,5.6h37.2c3.1,0,5.6-2.5,5.6-5.6V14C56.7,10.9,54.2,8.4,51.1,8.4z M53.4,51.1c0,1.3-1,2.3-2.3,2.3H14
	c-1.3,0-2.3-1-2.3-2.3v-5.8h28.1c3.1,0,5.6-2.5,5.6-5.6V11.7h5.8c1.3,0,2.3,1,2.3,2.3L53.4,51.1L53.4,51.1z"/>
</svg>
