<?xml version="1.0" encoding="utf-8"?>
<!-- Generator: Adobe Illustrator 25.2.1, SVG Export Plug-In . SVG Version: 6.00 Build 0)  -->
<svg version="1.1" id="Layer_1" xmlns="http://www.w3.org/2000/svg" xmlns:xlink="http://www.w3.org/1999/xlink" x="0px" y="0px"
	 viewBox="0 0 56.7 56.7" style="enable-background:new 0 0 56.7 56.7;" xml:space="preserve">
<style type="text/css">
	.st0{fill-rule:evenodd;clip-rule:evenodd;fill:#003500;}
</style>
<path class="st0" d="M8.8,0H39c0.4,0,0.7,0.2,1,0.4l12.8,12.8c0.3,0.3,0.4,0.6,0.4,0.9v37.3c0,1.4-0.6,2.7-1.5,3.7
	c-0.9,0.9-2.3,1.5-3.7,1.5H8.8c-1.4,0-2.7-0.6-3.7-1.5c-0.9-0.9-1.5-2.3-1.5-3.7V5.2c0-1.4,0.6-2.7,1.5-3.7C6.1,0.6,7.4,0,8.8,0
	L8.8,0z M19.4,16.7c0,0.7-0.6,1.3-1.3,1.3c-0.7,0-1.3-0.6-1.3-1.3V14h-2.7c-0.7,0-1.3-0.6-1.3-1.3c0-0.7,0.6-1.3,1.3-1.3h2.7V8.7
	c0-0.7,0.6-1.3,1.3-1.3c0.7,0,1.3,0.6,1.3,1.3v2.7h2.7c0.7,0,1.3,0.6,1.3,1.3c0,0.7-0.6,1.3-1.3,1.3h-2.7V16.7z M14.1,46.5
	c-0.7,0-1.3-0.6-1.3-1.3s0.6-1.3,1.3-1.3h28.5c0.7,0,1.3,0.6,1.3,1.3c0,0.7-0.6,1.3-1.3,1.3H14.1z M14.1,39.3
	c-0.7,0-1.3-0.6-1.3-1.3c0-0.7,0.6-1.3,1.3-1.3h28.5c0.7,0,1.3,0.6,1.3,1.3c0,0.7-0.6,1.3-1.3,1.3H14.1z M14.1,32.1
	c-0.7,0-1.3-0.6-1.3-1.3c0-0.7,0.6-1.3,1.3-1.3h28.5c0.7,0,1.3,0.6,1.3,1.3c0,0.7-0.6,1.3-1.3,1.3H14.1z M40.3,4.5v8.3h8.3L40.3,4.5
	z"/>
</svg>
