<svg xmlns="http://www.w3.org/2000/svg" xmlns:xlink="http://www.w3.org/1999/xlink" width="500" zoomAndPan="magnify" viewBox="0 0 375 374.999991" height="500" preserveAspectRatio="xMidYMid meet" version="1.0"><defs><g/><clipPath id="234c828586"><path d="M 47 159 L 137 159 L 137 241.75 L 47 241.75 Z M 47 159 " clip-rule="nonzero"/></clipPath><clipPath id="0a665d68be"><path d="M 72 114.25 L 82 114.25 L 82 156 L 72 156 Z M 72 114.25 " clip-rule="nonzero"/></clipPath></defs><g clip-path="url(#234c828586)"><path fill="#ef9e29" d="M 52.730469 214.59375 C 52.730469 187.75 74.492188 165.988281 101.335938 165.988281 C 115.019531 165.988281 127.386719 171.648438 136.21875 180.75 C 127.503906 167.6875 112.636719 159.085938 95.757812 159.085938 C 68.914062 159.085938 47.152344 180.84375 47.152344 207.6875 C 47.152344 220.847656 52.382812 232.78125 60.875 241.535156 C 55.730469 233.824219 52.730469 224.558594 52.730469 214.59375 " fill-opacity="1" fill-rule="nonzero"/></g><path fill="#ffd21f" d="M 55.160156 214.832031 C 50.8125 189.386719 67.917969 165.234375 93.367188 160.890625 C 106.339844 158.671875 118.976562 162.035156 128.820312 169.234375 C 118.449219 158.261719 102.960938 152.511719 86.960938 155.246094 C 61.515625 159.589844 44.410156 183.742188 48.753906 209.1875 C 50.882812 221.660156 57.773438 232.128906 67.238281 239.050781 C 61.113281 232.574219 56.773438 224.277344 55.160156 214.832031 " fill-opacity="1" fill-rule="nonzero"/><path fill="#ef9e29" d="M 122.167969 161.742188 C 122.144531 154.824219 124.683594 148.804688 126.566406 145.53125 C 128.597656 141.992188 134.523438 134.285156 137.34375 138.125 C 140.023438 141.765625 124.707031 155.554688 122.167969 161.742188 " fill-opacity="1" fill-rule="nonzero"/><path fill="#ef9e29" d="M 100.828125 154.570312 C 100.058594 147.839844 100.59375 140.816406 103.339844 134.386719 C 104.066406 132.679688 109.785156 120.277344 114.324219 122.988281 C 118.382812 125.414062 110.347656 136.550781 108.6875 139.199219 C 106.394531 142.851562 102.664062 148.496094 100.828125 154.570312 " fill-opacity="1" fill-rule="nonzero"/><path fill="#ef9e29" d="M 62.898438 165.105469 C 53.726562 160.535156 45.292969 154.226562 38.414062 146.703125 C 36.417969 144.523438 27.269531 132.53125 31.472656 130.167969 C 35.820312 127.726562 45.894531 141.476562 47.746094 144.015625 C 50.53125 147.839844 57.445312 158.675781 62.898438 165.105469 " fill-opacity="1" fill-rule="nonzero"/><path fill="#ef9e29" d="M 46.0625 184.03125 C 41.910156 180.191406 33.5625 177.066406 27 175.054688 C 24.644531 174.335938 8.726562 169.96875 9.8125 165.789062 C 12.039062 157.214844 41.519531 171.027344 46.0625 184.03125 " fill-opacity="1" fill-rule="nonzero"/><path fill="#ef9e29" d="M 41.519531 202.5625 C 30.488281 200.308594 0.0429688 204.742188 2.257812 197.695312 C 3.464844 193.867188 9.039062 193.203125 12.746094 193.070312 C 16.253906 192.945312 30.554688 195.195312 41.519531 202.5625 " fill-opacity="1" fill-rule="nonzero"/><path fill="#ef9e29" d="M 45.089844 227.101562 C 34.050781 224.457031 10.347656 232.136719 11.203125 225.878906 C 12.359375 217.375 37.503906 221.535156 45.089844 227.101562 " fill-opacity="1" fill-rule="nonzero"/><g clip-path="url(#0a665d68be)"><path fill="#ef9e29" d="M 78.519531 155.59375 C 75.242188 149.433594 74.128906 143.371094 73.292969 136.898438 C 72.703125 132.367188 72.492188 127.828125 73.246094 123.253906 C 73.667969 120.695312 75.441406 114.25 78.460938 114.253906 C 83.613281 114.257812 79.921875 132.265625 79.488281 135.640625 C 78.984375 139.542969 77.765625 146.59375 78.519531 155.59375 " fill-opacity="1" fill-rule="nonzero"/></g><g fill="#ef9e29" fill-opacity="1"><g transform="translate(65.369371, 221.590884)"><g><path d="M 6.140625 -9.359375 C 6.609375 -7.160156 7.382812 -5.519531 8.46875 -4.4375 C 9.550781 -3.351562 11.140625 -2.8125 13.234375 -2.8125 C 14.328125 -2.8125 15.304688 -2.992188 16.171875 -3.359375 C 17.046875 -3.734375 17.742188 -4.332031 18.265625 -5.15625 C 18.796875 -5.976562 19.0625 -7.007812 19.0625 -8.25 C 19.0625 -9.40625 18.847656 -10.398438 18.421875 -11.234375 C 17.992188 -12.078125 17.304688 -12.878906 16.359375 -13.640625 C 15.421875 -14.398438 14.109375 -15.207031 12.421875 -16.0625 C 10.972656 -16.789062 9.664062 -17.539062 8.5 -18.3125 C 7.332031 -19.09375 6.335938 -19.953125 5.515625 -20.890625 C 4.691406 -21.828125 4.050781 -22.847656 3.59375 -23.953125 C 3.144531 -25.066406 2.921875 -26.316406 2.921875 -27.703125 C 2.921875 -29.984375 3.484375 -31.921875 4.609375 -33.515625 C 5.742188 -35.109375 7.378906 -36.316406 9.515625 -37.140625 C 11.660156 -37.972656 14.140625 -38.390625 16.953125 -38.390625 C 18.597656 -38.390625 20.171875 -38.300781 21.671875 -38.125 C 23.179688 -37.945312 24.898438 -37.632812 26.828125 -37.1875 L 26.828125 -29.125 L 23.015625 -29.125 C 22.660156 -30.59375 22.207031 -31.753906 21.65625 -32.609375 C 21.113281 -33.472656 20.4375 -34.109375 19.625 -34.515625 C 18.8125 -34.921875 17.78125 -35.125 16.53125 -35.125 C 15.476562 -35.125 14.535156 -34.9375 13.703125 -34.5625 C 12.867188 -34.195312 12.207031 -33.648438 11.71875 -32.921875 C 11.238281 -32.191406 11 -31.304688 11 -30.265625 C 11 -29.191406 11.207031 -28.257812 11.625 -27.46875 C 12.039062 -26.6875 12.738281 -25.921875 13.71875 -25.171875 C 14.707031 -24.421875 16.140625 -23.5625 18.015625 -22.59375 C 20.285156 -21.40625 22.070312 -20.242188 23.375 -19.109375 C 24.6875 -17.972656 25.648438 -16.734375 26.265625 -15.390625 C 26.890625 -14.046875 27.203125 -12.484375 27.203125 -10.703125 C 27.203125 -8.421875 26.675781 -6.441406 25.625 -4.765625 C 24.570312 -3.085938 23.035156 -1.800781 21.015625 -0.90625 C 18.992188 -0.0078125 16.660156 0.4375 14.015625 0.4375 C 12.117188 0.4375 10.144531 0.332031 8.09375 0.125 C 6.050781 -0.0820312 4.128906 -0.394531 2.328125 -0.8125 L 2.328125 -9.359375 Z M 6.140625 -9.359375 "/></g></g></g><g fill="#ef9e29" fill-opacity="1"><g transform="translate(97.038868, 221.590884)"><g><path d="M 18.8125 -3.640625 L 18.40625 -3.78125 C 16.882812 -2.300781 15.40625 -1.226562 13.96875 -0.5625 C 12.53125 0.101562 11.003906 0.4375 9.390625 0.4375 C 7.796875 0.4375 6.410156 0.144531 5.234375 -0.4375 C 4.054688 -1.019531 3.164062 -1.828125 2.5625 -2.859375 C 1.96875 -3.898438 1.671875 -5.097656 1.671875 -6.453125 C 1.671875 -9.171875 3.007812 -11.3125 5.6875 -12.875 C 8.363281 -14.445312 12.425781 -15.4375 17.875 -15.84375 L 17.875 -18.484375 C 17.875 -20.203125 17.675781 -21.53125 17.28125 -22.46875 C 16.894531 -23.40625 16.394531 -24.0625 15.78125 -24.4375 C 15.175781 -24.820312 14.445312 -25.015625 13.59375 -25.015625 C 12.738281 -25.015625 12 -24.863281 11.375 -24.5625 C 10.757812 -24.269531 10.203125 -23.710938 9.703125 -22.890625 C 9.203125 -22.066406 8.832031 -20.921875 8.59375 -19.453125 L 3.328125 -19.453125 L 3.328125 -24.515625 C 5.035156 -25.273438 6.453125 -25.859375 7.578125 -26.265625 C 8.710938 -26.671875 9.832031 -27.007812 10.9375 -27.28125 C 12.039062 -27.550781 13.023438 -27.738281 13.890625 -27.84375 C 14.765625 -27.957031 15.640625 -28.015625 16.515625 -28.015625 C 18.753906 -28.015625 20.546875 -27.71875 21.890625 -27.125 C 23.234375 -26.53125 24.238281 -25.566406 24.90625 -24.234375 C 25.570312 -22.898438 25.90625 -21.054688 25.90625 -18.703125 L 25.90625 -7.859375 C 25.90625 -6.640625 25.929688 -5.695312 25.984375 -5.03125 C 26.046875 -4.363281 26.132812 -3.867188 26.25 -3.546875 C 26.375 -3.222656 26.523438 -2.960938 26.703125 -2.765625 C 26.890625 -2.566406 27.117188 -2.40625 27.390625 -2.28125 C 27.660156 -2.164062 28.164062 -2.015625 28.90625 -1.828125 L 28.90625 0 L 18.5625 0 Z M 17.90625 -13.125 C 15.03125 -13.039062 12.898438 -12.5 11.515625 -11.5 C 10.140625 -10.5 9.453125 -9.035156 9.453125 -7.109375 C 9.453125 -5.960938 9.765625 -5.085938 10.390625 -4.484375 C 11.023438 -3.878906 11.894531 -3.578125 13 -3.578125 C 13.851562 -3.578125 14.660156 -3.804688 15.421875 -4.265625 C 16.179688 -4.722656 16.785156 -5.328125 17.234375 -6.078125 C 17.679688 -6.835938 17.90625 -7.644531 17.90625 -8.5 Z M 17.90625 -13.125 "/></g></g></g><g fill="#ef9e29" fill-opacity="1"><g transform="translate(127.73541, 221.590884)"><g><path d="M 14.390625 -27.578125 L 14.390625 -25.734375 C 13.523438 -25.566406 12.890625 -25.316406 12.484375 -24.984375 C 12.078125 -24.648438 11.875 -24.148438 11.875 -23.484375 C 11.875 -22.597656 12.113281 -21.441406 12.59375 -20.015625 L 16.59375 -7.859375 L 21.015625 -18.515625 C 21.378906 -19.398438 21.65625 -20.179688 21.84375 -20.859375 C 22.03125 -21.535156 22.125 -22.195312 22.125 -22.84375 C 22.125 -23.625 21.898438 -24.269531 21.453125 -24.78125 C 21.015625 -25.289062 20.382812 -25.609375 19.5625 -25.734375 L 19.5625 -27.578125 L 30.375 -27.578125 L 30.375 -25.703125 C 29.84375 -25.535156 29.410156 -25.332031 29.078125 -25.09375 C 28.753906 -24.851562 28.445312 -24.535156 28.15625 -24.140625 C 27.875 -23.753906 27.53125 -23.175781 27.125 -22.40625 C 26.71875 -21.644531 26.160156 -20.484375 25.453125 -18.921875 L 16.78125 0.28125 L 11.53125 0.28125 L 4.203125 -20.875 C 3.703125 -22.332031 3.289062 -23.332031 2.96875 -23.875 C 2.65625 -24.425781 2.304688 -24.847656 1.921875 -25.140625 C 1.546875 -25.429688 1.082031 -25.628906 0.53125 -25.734375 L 0.53125 -27.578125 Z M 14.390625 -27.578125 "/></g></g></g><g fill="#ef9e29" fill-opacity="1"><g transform="translate(159.988337, 221.590884)"><g><path d="M 12.921875 -38.65625 L 12.921875 -31.859375 L 5.3125 -31.859375 L 5.3125 -38.65625 Z M 2.359375 -1.828125 C 3.265625 -2.078125 3.890625 -2.394531 4.234375 -2.78125 C 4.578125 -3.164062 4.804688 -3.691406 4.921875 -4.359375 C 5.046875 -5.023438 5.109375 -6.238281 5.109375 -8 L 5.109375 -20.921875 C 5.109375 -21.835938 5.066406 -22.570312 4.984375 -23.125 C 4.898438 -23.675781 4.742188 -24.117188 4.515625 -24.453125 C 4.285156 -24.785156 3.96875 -25.039062 3.5625 -25.21875 C 3.164062 -25.394531 2.65625 -25.550781 2.03125 -25.6875 L 2.03125 -27.578125 L 9.671875 -27.796875 L 13.140625 -27.796875 L 13.140625 -8.03125 C 13.140625 -6.988281 13.15625 -6.1875 13.1875 -5.625 C 13.21875 -5.0625 13.257812 -4.625 13.3125 -4.3125 C 13.363281 -4.007812 13.441406 -3.738281 13.546875 -3.5 C 13.648438 -3.257812 13.785156 -3.035156 13.953125 -2.828125 C 14.117188 -2.628906 14.359375 -2.445312 14.671875 -2.28125 C 14.984375 -2.113281 15.398438 -1.960938 15.921875 -1.828125 L 15.921875 0 L 2.359375 0 Z M 2.359375 -1.828125 "/></g></g></g><g fill="#ef9e29" fill-opacity="1"><g transform="translate(179.931955, 221.590884)"><g><path d="M 21.40625 -3.328125 C 19.769531 -1.941406 18.285156 -0.96875 16.953125 -0.40625 C 15.617188 0.15625 14.210938 0.4375 12.734375 0.4375 C 9.972656 0.4375 7.910156 -0.304688 6.546875 -1.796875 C 5.179688 -3.285156 4.5 -5.539062 4.5 -8.5625 L 4.5 -24.09375 L 1.03125 -24.09375 L 1.03125 -26.015625 C 2.15625 -26.203125 2.984375 -26.476562 3.515625 -26.84375 C 4.054688 -27.21875 4.472656 -27.710938 4.765625 -28.328125 C 5.066406 -28.953125 5.304688 -29.765625 5.484375 -30.765625 C 5.660156 -31.765625 5.796875 -33.015625 5.890625 -34.515625 L 12.53125 -34.515625 L 12.53125 -27.578125 L 20.453125 -27.578125 L 20.453125 -24.09375 L 12.53125 -24.09375 L 12.53125 -11.5625 C 12.53125 -9.46875 12.628906 -7.921875 12.828125 -6.921875 C 13.023438 -5.921875 13.351562 -5.179688 13.8125 -4.703125 C 14.28125 -4.234375 14.851562 -4 15.53125 -4 C 16.050781 -4 16.515625 -4.046875 16.921875 -4.140625 C 17.328125 -4.234375 17.757812 -4.398438 18.21875 -4.640625 C 18.675781 -4.878906 19.15625 -5.222656 19.65625 -5.671875 Z M 21.40625 -3.328125 "/></g></g></g><g fill="#ef9e29" fill-opacity="1"><g transform="translate(202.765343, 221.590884)"><g><path d="M 12.75 -23.59375 L 13.125 -23.515625 C 14.46875 -25.109375 15.851562 -26.253906 17.28125 -26.953125 C 18.707031 -27.660156 20.253906 -28.015625 21.921875 -28.015625 C 23.054688 -28.015625 24.242188 -27.894531 25.484375 -27.65625 L 25.484375 -19.984375 L 20.453125 -19.984375 C 20.140625 -21.054688 19.726562 -21.878906 19.21875 -22.453125 C 18.707031 -23.023438 18.023438 -23.3125 17.171875 -23.3125 C 16.765625 -23.3125 16.316406 -23.1875 15.828125 -22.9375 C 15.335938 -22.6875 14.882812 -22.332031 14.46875 -21.875 C 14.050781 -21.425781 13.753906 -20.96875 13.578125 -20.5 C 13.398438 -20.03125 13.28125 -19.550781 13.21875 -19.0625 C 13.164062 -18.582031 13.140625 -17.863281 13.140625 -16.90625 L 13.140625 -8.03125 C 13.140625 -6.269531 13.203125 -5.035156 13.328125 -4.328125 C 13.460938 -3.628906 13.722656 -3.078125 14.109375 -2.671875 C 14.503906 -2.273438 15.164062 -1.992188 16.09375 -1.828125 L 16.09375 0 L 2.390625 0 L 2.390625 -1.828125 C 3.273438 -2.078125 3.890625 -2.394531 4.234375 -2.78125 C 4.578125 -3.164062 4.804688 -3.691406 4.921875 -4.359375 C 5.046875 -5.023438 5.109375 -6.238281 5.109375 -8 L 5.109375 -19.421875 C 5.109375 -20.796875 5.082031 -21.8125 5.03125 -22.46875 C 4.988281 -23.125 4.878906 -23.648438 4.703125 -24.046875 C 4.535156 -24.453125 4.269531 -24.78125 3.90625 -25.03125 C 3.539062 -25.28125 2.914062 -25.5 2.03125 -25.6875 L 2.03125 -27.578125 L 9.640625 -27.796875 L 13.140625 -27.796875 Z M 12.75 -23.59375 "/></g></g></g><g fill="#ef9e29" fill-opacity="1"><g transform="translate(230.238875, 221.590884)"><g><path d="M 15.875 0.4375 C 13.144531 0.4375 10.789062 -0.0351562 8.8125 -0.984375 C 6.84375 -1.941406 5.300781 -3.472656 4.1875 -5.578125 C 3.082031 -7.679688 2.53125 -10.351562 2.53125 -13.59375 C 2.53125 -16.070312 2.875 -18.21875 3.5625 -20.03125 C 4.25 -21.851562 5.203125 -23.359375 6.421875 -24.546875 C 7.640625 -25.734375 9.097656 -26.609375 10.796875 -27.171875 C 12.492188 -27.734375 14.332031 -28.015625 16.3125 -28.015625 C 20.800781 -28.015625 24.179688 -26.832031 26.453125 -24.46875 C 28.734375 -22.101562 29.875 -18.644531 29.875 -14.09375 C 29.875 -10.863281 29.304688 -8.160156 28.171875 -5.984375 C 27.046875 -3.804688 25.4375 -2.191406 23.34375 -1.140625 C 21.25 -0.0859375 18.757812 0.4375 15.875 0.4375 Z M 10.984375 -14.203125 C 10.984375 -10.273438 11.421875 -7.332031 12.296875 -5.375 C 13.179688 -3.425781 14.507812 -2.453125 16.28125 -2.453125 C 17.269531 -2.453125 18.09375 -2.703125 18.75 -3.203125 C 19.40625 -3.703125 19.929688 -4.421875 20.328125 -5.359375 C 20.722656 -6.304688 21.003906 -7.441406 21.171875 -8.765625 C 21.335938 -10.085938 21.421875 -11.578125 21.421875 -13.234375 C 21.421875 -17.210938 20.976562 -20.1875 20.09375 -22.15625 C 19.21875 -24.132812 17.921875 -25.125 16.203125 -25.125 C 14.941406 -25.125 13.929688 -24.722656 13.171875 -23.921875 C 12.410156 -23.128906 11.851562 -21.9375 11.5 -20.34375 C 11.15625 -18.75 10.984375 -16.703125 10.984375 -14.203125 Z M 10.984375 -14.203125 "/></g></g></g><g fill="#ef9e29" fill-opacity="1"><g transform="translate(264.686916, 221.590884)"><g><path d="M 32.609375 0 L 19.125 0 L 19.125 -1.828125 C 19.976562 -2.035156 20.570312 -2.335938 20.90625 -2.734375 C 21.238281 -3.128906 21.460938 -3.664062 21.578125 -4.34375 C 21.703125 -5.019531 21.765625 -6.238281 21.765625 -8 L 21.765625 -15.421875 C 21.765625 -16.742188 21.734375 -17.820312 21.671875 -18.65625 C 21.617188 -19.5 21.53125 -20.191406 21.40625 -20.734375 C 21.289062 -21.273438 21.125 -21.722656 20.90625 -22.078125 C 20.695312 -22.441406 20.460938 -22.738281 20.203125 -22.96875 C 19.941406 -23.195312 19.644531 -23.367188 19.3125 -23.484375 C 18.976562 -23.597656 18.550781 -23.65625 18.03125 -23.65625 C 17.332031 -23.65625 16.601562 -23.4375 15.84375 -23 C 15.082031 -22.5625 14.441406 -21.957031 13.921875 -21.1875 C 13.398438 -20.425781 13.140625 -19.609375 13.140625 -18.734375 L 13.140625 -8.03125 C 13.140625 -6.269531 13.195312 -5.046875 13.3125 -4.359375 C 13.425781 -3.671875 13.65625 -3.128906 14 -2.734375 C 14.34375 -2.335938 14.945312 -2.035156 15.8125 -1.828125 L 15.8125 0 L 2.390625 0 L 2.390625 -1.828125 C 3.273438 -2.078125 3.890625 -2.394531 4.234375 -2.78125 C 4.578125 -3.164062 4.804688 -3.691406 4.921875 -4.359375 C 5.046875 -5.023438 5.109375 -6.238281 5.109375 -8 L 5.109375 -19.421875 C 5.109375 -20.796875 5.082031 -21.8125 5.03125 -22.46875 C 4.988281 -23.125 4.878906 -23.648438 4.703125 -24.046875 C 4.535156 -24.453125 4.269531 -24.78125 3.90625 -25.03125 C 3.539062 -25.28125 2.914062 -25.5 2.03125 -25.6875 L 2.03125 -27.578125 L 9.640625 -27.796875 L 13.140625 -27.796875 L 12.734375 -23.796875 L 13.0625 -23.703125 C 14.207031 -24.722656 15.21875 -25.523438 16.09375 -26.109375 C 16.96875 -26.691406 17.878906 -27.15625 18.828125 -27.5 C 19.785156 -27.84375 20.789062 -28.015625 21.84375 -28.015625 C 23.363281 -28.015625 24.625 -27.796875 25.625 -27.359375 C 26.625 -26.921875 27.429688 -26.285156 28.046875 -25.453125 C 28.671875 -24.617188 29.117188 -23.597656 29.390625 -22.390625 C 29.660156 -21.191406 29.796875 -19.796875 29.796875 -18.203125 L 29.796875 -8.03125 C 29.796875 -7.21875 29.804688 -6.453125 29.828125 -5.734375 C 29.859375 -5.023438 29.929688 -4.457031 30.046875 -4.03125 C 30.160156 -3.601562 30.3125 -3.253906 30.5 -2.984375 C 30.695312 -2.710938 30.972656 -2.484375 31.328125 -2.296875 C 31.679688 -2.117188 32.109375 -1.960938 32.609375 -1.828125 Z M 32.609375 0 "/></g></g></g><g fill="#ef9e29" fill-opacity="1"><g transform="translate(301.079995, 221.590884)"><g><path d="M 10.34375 -8.390625 L 10.34375 0 L 2.859375 0 L 2.859375 -8.390625 Z M 10.34375 -8.390625 "/></g></g></g><g fill="#ef9e29" fill-opacity="1"><g transform="translate(316.327736, 221.590884)"><g><path d="M 18.8125 -3.640625 L 18.40625 -3.78125 C 16.882812 -2.300781 15.40625 -1.226562 13.96875 -0.5625 C 12.53125 0.101562 11.003906 0.4375 9.390625 0.4375 C 7.796875 0.4375 6.410156 0.144531 5.234375 -0.4375 C 4.054688 -1.019531 3.164062 -1.828125 2.5625 -2.859375 C 1.96875 -3.898438 1.671875 -5.097656 1.671875 -6.453125 C 1.671875 -9.171875 3.007812 -11.3125 5.6875 -12.875 C 8.363281 -14.445312 12.425781 -15.4375 17.875 -15.84375 L 17.875 -18.484375 C 17.875 -20.203125 17.675781 -21.53125 17.28125 -22.46875 C 16.894531 -23.40625 16.394531 -24.0625 15.78125 -24.4375 C 15.175781 -24.820312 14.445312 -25.015625 13.59375 -25.015625 C 12.738281 -25.015625 12 -24.863281 11.375 -24.5625 C 10.757812 -24.269531 10.203125 -23.710938 9.703125 -22.890625 C 9.203125 -22.066406 8.832031 -20.921875 8.59375 -19.453125 L 3.328125 -19.453125 L 3.328125 -24.515625 C 5.035156 -25.273438 6.453125 -25.859375 7.578125 -26.265625 C 8.710938 -26.671875 9.832031 -27.007812 10.9375 -27.28125 C 12.039062 -27.550781 13.023438 -27.738281 13.890625 -27.84375 C 14.765625 -27.957031 15.640625 -28.015625 16.515625 -28.015625 C 18.753906 -28.015625 20.546875 -27.71875 21.890625 -27.125 C 23.234375 -26.53125 24.238281 -25.566406 24.90625 -24.234375 C 25.570312 -22.898438 25.90625 -21.054688 25.90625 -18.703125 L 25.90625 -7.859375 C 25.90625 -6.640625 25.929688 -5.695312 25.984375 -5.03125 C 26.046875 -4.363281 26.132812 -3.867188 26.25 -3.546875 C 26.375 -3.222656 26.523438 -2.960938 26.703125 -2.765625 C 26.890625 -2.566406 27.117188 -2.40625 27.390625 -2.28125 C 27.660156 -2.164062 28.164062 -2.015625 28.90625 -1.828125 L 28.90625 0 L 18.5625 0 Z M 17.90625 -13.125 C 15.03125 -13.039062 12.898438 -12.5 11.515625 -11.5 C 10.140625 -10.5 9.453125 -9.035156 9.453125 -7.109375 C 9.453125 -5.960938 9.765625 -5.085938 10.390625 -4.484375 C 11.023438 -3.878906 11.894531 -3.578125 13 -3.578125 C 13.851562 -3.578125 14.660156 -3.804688 15.421875 -4.265625 C 16.179688 -4.722656 16.785156 -5.328125 17.234375 -6.078125 C 17.679688 -6.835938 17.90625 -7.644531 17.90625 -8.5 Z M 17.90625 -13.125 "/></g></g></g><g fill="#ef9e29" fill-opacity="1"><g transform="translate(348.83074, 221.590884)"><g><path d="M 12.921875 -38.65625 L 12.921875 -31.859375 L 5.3125 -31.859375 L 5.3125 -38.65625 Z M 2.359375 -1.828125 C 3.265625 -2.078125 3.890625 -2.394531 4.234375 -2.78125 C 4.578125 -3.164062 4.804688 -3.691406 4.921875 -4.359375 C 5.046875 -5.023438 5.109375 -6.238281 5.109375 -8 L 5.109375 -20.921875 C 5.109375 -21.835938 5.066406 -22.570312 4.984375 -23.125 C 4.898438 -23.675781 4.742188 -24.117188 4.515625 -24.453125 C 4.285156 -24.785156 3.96875 -25.039062 3.5625 -25.21875 C 3.164062 -25.394531 2.65625 -25.550781 2.03125 -25.6875 L 2.03125 -27.578125 L 9.671875 -27.796875 L 13.140625 -27.796875 L 13.140625 -8.03125 C 13.140625 -6.988281 13.15625 -6.1875 13.1875 -5.625 C 13.21875 -5.0625 13.257812 -4.625 13.3125 -4.3125 C 13.363281 -4.007812 13.441406 -3.738281 13.546875 -3.5 C 13.648438 -3.257812 13.785156 -3.035156 13.953125 -2.828125 C 14.117188 -2.628906 14.359375 -2.445312 14.671875 -2.28125 C 14.984375 -2.113281 15.398438 -1.960938 15.921875 -1.828125 L 15.921875 0 L 2.359375 0 Z M 2.359375 -1.828125 "/></g></g></g></svg>