<?xml version="1.0" encoding="utf-8"?>
<!-- Generator: Adobe Illustrator 25.2.1, SVG Export Plug-In . SVG Version: 6.00 Build 0)  -->
<svg version="1.1" id="Layer_1" xmlns="http://www.w3.org/2000/svg" xmlns:xlink="http://www.w3.org/1999/xlink" x="0px" y="0px"
	 viewBox="0 0 60 60" style="enable-background:new 0 0 60 60;" xml:space="preserve">
<style type="text/css">
	.st0{fill:#F3B500;}
</style>
<g>
	<g>
		<path class="st0" d="M59.6,23.1l-21.5-0.5c0,0-0.6,0-0.8-0.6L30.2,1.8c0,0-0.2-0.6-0.4,0L22.6,22c0,0-0.2,0.6-0.8,0.6L0.4,23.1
			c0,0-0.6,0-0.1,0.4l16.5,12.7l0.7-2.1L6.2,25.4c-0.4-0.3,0.1-0.3,0.1-0.3l17.2-0.4c0.5,0,0.6-0.5,0.6-0.5L29.8,8
			c0.1-0.4,0.3,0,0.3,0l5.7,16.2c0.1,0.4,0.6,0.5,0.6,0.5l17.2,0.4c0.5,0,0.1,0.3,0.1,0.3L40.2,35.9c-0.4,0.3-0.2,0.7-0.2,0.7
			l4.9,16.5c0.1,0.4-0.2,0.2-0.2,0.2l-12.2-8.4l-1.7,1.3l17.5,12.1c0,0,0.5,0.3,0.3-0.2l-6.1-20.6c0,0-0.2-0.6,0.3-0.9l17-13.1
			C59.7,23.5,60.2,23.1,59.6,23.1"/>
		<path class="st0" d="M20.8,29.7c0,0-0.2-0.6-0.4,0l-3.5,9.9c0,0-0.2,0.6-0.8,0.6L5.6,40.4c0,0-0.6,0-0.1,0.4l8.3,6.4
			c0,0,0.5,0.4,0.3,0.9l-3,10c0,0-0.2,0.6,0.3,0.2l8.6-5.9c0,0,0.5-0.3,1,0l8.6,5.9c0,0,0.5,0.3,0.3-0.2l-3-10c0,0-0.2-0.6,0.3-0.9
			l8.3-6.4c0,0,0.5-0.4-0.1-0.4l-10.5-0.3c0,0-0.6,0-0.8-0.6L20.8,29.7z"/>
	</g>
</g>
</svg>
