<?xml version="1.0" encoding="utf-8"?>
<!-- Generator: Adobe Illustrator 25.2.1, SVG Export Plug-In . SVG Version: 6.00 Build 0)  -->
<svg version="1.1" id="Layer_1" xmlns="http://www.w3.org/2000/svg" xmlns:xlink="http://www.w3.org/1999/xlink" x="0px" y="0px"
	 viewBox="0 0 60 60" style="enable-background:new 0 0 60 60;" xml:space="preserve">
<style type="text/css">
	.st0{fill:#B8962E;}
</style>
<g>
	<path class="st0" d="M32.2,32.1h-4.4c-0.1,0-0.1,0-0.2,0.1c0,0-0.1,0.1-0.1,0.2v9.3c0,0.1,0,0.1,0.1,0.2c0,0,0.1,0.1,0.2,0.1h4.4
		c0.1,0,0.1,0,0.2-0.1c0,0,0.1-0.1,0.1-0.2v-9.3c0-0.1,0-0.1-0.1-0.2C32.3,32.1,32.3,32.1,32.2,32.1L32.2,32.1L32.2,32.1z M3.4,12.3
		h15.4V7.9c0-0.7,0.3-1.3,0.7-1.7c0.4-0.4,1-0.7,1.7-0.7h17.6c0.7,0,1.3,0.3,1.7,0.7c0.4,0.4,0.7,1,0.7,1.7v4.4h15.4
		c0.9,0,1.8,0.4,2.4,1c0.6,0.6,1,1.5,1,2.4v8.2c-3.9,2.6-7.8,4.9-11.9,6.7c-4.1,1.8-8.4,3.3-12.8,4.3v-3.3c0-0.8-0.3-1.4-0.8-1.9
		c-0.5-0.5-1.2-0.8-1.9-0.8h-5.1l0,0c-0.8,0-1.4,0.3-1.9,0.8c-0.5,0.5-0.8,1.2-0.8,1.9v3.2c-4.3-1-8.4-2.4-12.4-4.2
		C8,28.8,4,26.4,0,23.7v-8c0-0.9,0.4-1.8,1-2.4C1.6,12.7,2.5,12.3,3.4,12.3L3.4,12.3L3.4,12.3z M60,28.8v22.3c0,0.9-0.4,1.8-1,2.4
		c-0.6,0.6-1.5,1-2.4,1H3.4c-0.9,0-1.8-0.4-2.4-1c-0.6-0.6-1-1.5-1-2.4V28.6c3.4,2.2,6.8,4,10.4,5.6c4.6,2.1,9.4,3.6,14.3,4.7v3.5
		c0,0.8,0.3,1.4,0.8,1.9c0.5,0.5,1.2,0.8,1.9,0.8h5.1c0.8,0,1.4-0.3,1.9-0.8c0.5-0.5,0.8-1.2,0.8-1.9v-3.7l0.1,0.2
		c5-1.1,9.9-2.7,14.6-4.8C53.4,32.7,56.7,30.9,60,28.8L60,28.8z M37,8.7H23c-0.1,0-0.2,0-0.2,0.1c0,0-0.1,0.1-0.1,0.2v3.1h14.5V9
		c0-0.1,0-0.2-0.1-0.2C37.1,8.8,37,8.7,37,8.7L37,8.7L37,8.7z"/>
</g>
</svg>
