<?xml version="1.0" encoding="utf-8"?>
<!-- Generator: Adobe Illustrator 25.2.1, SVG Export Plug-In . SVG Version: 6.00 Build 0)  -->
<svg version="1.1" id="Layer_1" xmlns="http://www.w3.org/2000/svg" xmlns:xlink="http://www.w3.org/1999/xlink" x="0px" y="0px"
	 viewBox="0 0 60 60" style="enable-background:new 0 0 60 60;" xml:space="preserve">
<style type="text/css">
	.st0{fill:#B8962E;}
</style>
<path class="st0" d="M21.9,37.3h-9.2v-4.8c0-6.7,5.4-12.1,12.1-12.1h10.4c6.7,0,12.1,5.4,12.1,12.1v4.8h-9.2v-4.8c0-0.5-0.4-1-1-1
	c-0.5,0-1,0.4-1,1v4.8H23.8v-4.8c0-0.5-0.4-1-1-1s-1,0.4-1,1L21.9,37.3z M30,17.1c4.7,0,8.5-3.8,8.5-8.5C38.5,3.8,34.7,0,30,0
	s-8.5,3.8-8.5,8.5C21.5,13.3,25.3,17.1,30,17.1z M53.6,41.7v15.8c0,1.4-1.1,2.5-2.5,2.5H8.9c-1.4,0-2.5-1.1-2.5-2.5V41.7
	c0-1.4,1.1-2.5,2.5-2.5h42.2C52.5,39.3,53.6,40.4,53.6,41.7L53.6,41.7z M39,53c0-0.5-0.4-1-1-1H22c-0.5,0-1,0.4-1,1c0,0.5,0.4,1,1,1
	H38C38.6,54,39,53.5,39,53L39,53z M45.1,46.3c0-0.5-0.4-1-1-1l-28.2,0c-0.5,0-1,0.4-1,1c0,0.5,0.4,1,1,1h28.2
	C44.6,47.2,45.1,46.8,45.1,46.3z"/>
</svg>
