<?xml version="1.0" encoding="utf-8"?>
<!-- Generator: Adobe Illustrator 25.2.1, SVG Export Plug-In . SVG Version: 6.00 Build 0)  -->
<svg version="1.1" id="Layer_1" xmlns="http://www.w3.org/2000/svg" xmlns:xlink="http://www.w3.org/1999/xlink" x="0px" y="0px"
	 viewBox="0 0 60 60" style="enable-background:new 0 0 60 60;" xml:space="preserve">
<style type="text/css">
	.st0{fill-rule:evenodd;clip-rule:evenodd;fill:#B8962E;}
</style>
<g>
	<path class="st0" d="M4.3,13.9h5v40.4h-5c-2.4,0-4.3-1.9-4.3-4.3V18.2C0,15.9,1.9,13.9,4.3,13.9L4.3,13.9z M25.6,5.6h8.5
		c2.7,0,4.8,2.2,4.8,4.8V13h-3.1v-2.6c0-0.9-0.8-1.7-1.7-1.7h-8.7c-0.9,0-1.7,0.8-1.7,1.7V13h-3.1v-2.6C20.7,7.8,22.9,5.6,25.6,5.6
		L25.6,5.6z M11.9,13.9h35.7v40.4H11.9V13.9L11.9,13.9z M50.1,13.9h5.6c2.4,0,4.3,1.9,4.3,4.3v31.8c0,2.4-1.9,4.3-4.3,4.3h-5.6V13.9
		L50.1,13.9z"/>
</g>
</svg>
