<?xml version="1.0" encoding="utf-8"?>
<!-- Generator: Adobe Illustrator 25.2.1, SVG Export Plug-In . SVG Version: 6.00 Build 0)  -->
<svg version="1.1" id="Layer_1" xmlns="http://www.w3.org/2000/svg" xmlns:xlink="http://www.w3.org/1999/xlink" x="0px" y="0px"
	 viewBox="0 0 60 60" style="enable-background:new 0 0 60 60;" xml:space="preserve">
<style type="text/css">
	.st0{fill:#B8962E;}
</style>
<path class="st0" d="M3.1,39.8c0.1,0.4-0.1,0.7-0.4,0.9c-0.4,0.1-0.7,0-0.9-0.4c-0.6-1.6-1-3.3-1.4-5C0.2,33.5,0,31.8,0,30
	c0-8.3,3.4-15.8,8.8-21.2C14.2,3.4,21.7,0,30,0c3.4,0,6.7,0.6,9.8,1.6c3,1,5.8,2.5,8.2,4.4l2.6-2.2c0.2-0.2,0.5-0.3,0.8-0.4
	c0.3,0,0.6,0,0.9,0.1l0,0c0.3,0.1,0.5,0.3,0.7,0.5l0,0c0.2,0.2,0.3,0.5,0.3,0.8l1.2,10.7c0,0.3,0,0.5-0.1,0.8
	c-0.1,0.2-0.3,0.5-0.5,0.6c-0.2,0.2-0.5,0.3-0.7,0.3c-0.3,0-0.5,0-0.8,0l-9.9-3.1l0,0c-0.3-0.1-0.5-0.2-0.7-0.4
	c-0.2-0.2-0.3-0.5-0.4-0.8c-0.1-0.3,0-0.6,0-0.8c0.1-0.3,0.3-0.5,0.5-0.7l2-1.7c-1.9-1.3-4-2.3-6.2-3.1c-2.4-0.8-5-1.2-7.7-1.2
	c-6.8,0-13,2.8-17.4,7.2C8.1,17,5.4,23.2,5.4,30c0,1.4,0.1,2.7,0.3,4c0.2,1.3,0.5,2.6,1,3.9c0.1,0.4-0.1,0.7-0.4,0.9
	c-0.4,0.1-0.8-0.1-0.9-0.4c-0.4-1.3-0.8-2.7-1-4.1C4.1,32.8,4,31.4,4,30c0-7.2,2.9-13.7,7.6-18.4C16.3,6.9,22.8,4,30,4
	c2.8,0,5.5,0.5,8.1,1.3c2.6,0.9,5.1,2.1,7.2,3.7c0.1,0,0.1,0.1,0.2,0.1c0.3,0.3,0.2,0.7-0.1,1l-2.6,2.3c0,0-0.1,0.1-0.1,0.1
	c0,0,0,0.1,0,0.1c0,0,0,0.1,0,0.1c0,0,0,0,0.1,0.1l9.9,3.1c0,0,0.1,0,0.1,0c0,0,0.1,0,0.1,0c0,0,0.1-0.1,0.1-0.1c0,0,0-0.1,0-0.1
	L51.9,4.9c0,0,0-0.1,0-0.1l0,0c0,0,0,0-0.1-0.1l0,0c0,0-0.1,0-0.1,0c0,0-0.1,0-0.1,0l-3,2.6c-0.2,0.2-0.6,0.2-0.9,0
	c-2.5-1.9-5.3-3.5-8.3-4.5c-2.9-1-6.1-1.6-9.3-1.6c-7.9,0-15.1,3.2-20.2,8.4C4.6,14.9,1.4,22.1,1.4,30c0,1.7,0.2,3.4,0.4,5
	C2.1,36.7,2.5,38.3,3.1,39.8L3.1,39.8z M30,47.3c9.6,0,17.3-7.8,17.3-17.3c0-9.6-7.8-17.3-17.3-17.3c-9.6,0-17.3,7.8-17.3,17.3
	C12.7,39.6,20.4,47.3,30,47.3z M33,25c-0.8-2.6-5.7-2.9-5.7,0.3c0,1.8,2.3,2.4,3.6,2.9c3.1,1.1,5.9,2.3,5.9,6.2c0,3-2,5.3-4.8,6.1
	v2.3c0,0.5-0.4,0.8-0.8,0.8h-2.2c-0.5,0-0.8-0.4-0.8-0.8l0-2.2c-0.5-0.1-1-0.3-1.5-0.6c-1.8-1-2.8-2.7-3.1-4.6c0-0.3,0-0.5,0.2-0.7
	c0.2-0.2,0.4-0.3,0.6-0.3h2.1c0.4,0,0.7,0.2,0.8,0.6c0.8,2.6,5.7,2.9,5.7-0.3c0-1.9-2.6-2.5-4-3.1c-3-1.1-5.5-2.4-5.5-6.1
	c0-3,2-5.3,4.8-6.1v-2.3c0-0.5,0.4-0.8,0.8-0.8h2.2c0.5,0,0.8,0.4,0.8,0.8l0,2.2c0.5,0.1,1.1,0.3,1.5,0.6c1.8,1,2.8,2.7,3.1,4.6
	c0,0.3,0,0.5-0.2,0.7c-0.2,0.2-0.4,0.3-0.6,0.3h-2.1C33.4,25.6,33.1,25.3,33,25L33,25z M56.9,20.2c-0.1-0.4,0.1-0.7,0.4-0.9
	c0.4-0.1,0.7,0,0.9,0.4c0.6,1.6,1,3.3,1.4,5c0.3,1.7,0.5,3.5,0.5,5.2c0,8.3-3.4,15.8-8.8,21.2C45.8,56.6,38.3,60,30,60
	c-3.4,0-6.7-0.6-9.8-1.6c-3-1-5.8-2.5-8.2-4.4l-2.6,2.2c-0.2,0.2-0.5,0.3-0.8,0.4c-0.3,0-0.6,0-0.9-0.1l0,0
	c-0.3-0.1-0.5-0.3-0.7-0.5l0,0c-0.2-0.2-0.3-0.5-0.3-0.8L5.6,44.5c0-0.3,0-0.5,0.1-0.8c0.1-0.2,0.3-0.5,0.5-0.6
	c0.2-0.2,0.5-0.3,0.7-0.3c0.3,0,0.5,0,0.8,0l9.9,3.1l0,0c0.3,0.1,0.5,0.2,0.7,0.4c0.2,0.2,0.3,0.5,0.4,0.8c0.1,0.3,0,0.6,0,0.8
	c-0.1,0.3-0.3,0.5-0.5,0.7l-2,1.7c1.9,1.3,4,2.3,6.2,3.1c2.4,0.8,5,1.2,7.7,1.2c6.8,0,13-2.8,17.4-7.2c4.5-4.5,7.2-10.6,7.2-17.4
	c0-1.4-0.1-2.7-0.3-4c-0.2-1.3-0.5-2.6-1-3.9c-0.1-0.4,0.1-0.7,0.4-0.9c0.4-0.1,0.8,0.1,0.9,0.4c0.4,1.3,0.8,2.7,1,4.1
	c0.2,1.4,0.3,2.8,0.3,4.2c0,7.2-2.9,13.7-7.6,18.4C43.7,53.1,37.2,56,30,56c-2.8,0-5.5-0.5-8.1-1.3c-2.6-0.9-5.1-2.1-7.2-3.7
	c-0.1,0-0.1-0.1-0.2-0.1c-0.3-0.3-0.2-0.7,0.1-1l2.6-2.3c0,0,0.1-0.1,0.1-0.1c0,0,0-0.1,0-0.1c0,0,0-0.1,0-0.1c0,0,0,0-0.1-0.1
	l-9.9-3.1c0,0-0.1,0-0.1,0c0,0-0.1,0-0.1,0c0,0-0.1,0.1-0.1,0.1c0,0,0,0.1,0,0.1l1.2,10.7c0,0,0,0.1,0,0.1l0,0c0,0,0,0,0.1,0.1l0,0
	c0,0,0.1,0,0.1,0c0,0,0.1,0,0.1,0l3-2.6c0.2-0.2,0.6-0.2,0.9,0c2.5,1.9,5.3,3.5,8.3,4.5c2.9,1,6.1,1.6,9.3,1.6
	c7.9,0,15.1-3.2,20.2-8.4c5.2-5.2,8.4-12.3,8.4-20.2c0-1.7-0.2-3.4-0.4-5C57.9,23.3,57.5,21.7,56.9,20.2L56.9,20.2z"/>
</svg>
