<?xml version="1.0" encoding="utf-8"?>
<!-- Generator: Adobe Illustrator 25.2.1, SVG Export Plug-In . SVG Version: 6.00 Build 0)  -->
<svg version="1.1"
	 id="Layer_1" shape-rendering="geometricPrecision" text-rendering="geometricPrecision" image-rendering="optimizeQuality"
	 xmlns="http://www.w3.org/2000/svg" xmlns:xlink="http://www.w3.org/1999/xlink" x="0px" y="0px" viewBox="0 0 60 60"
	 style="enable-background:new 0 0 60 60;" xml:space="preserve">
<style type="text/css">
	.st0{fill:#B8962E;}
</style>
<path class="st0" d="M49.6,7.2c-0.6-0.6-1.3-0.9-2.1-0.9c-0.8,0-1.5,0.3-2.1,0.9l-3.2,3.2c-0.8-0.6-1.7-1-2.7-1.5
	c-0.9-0.4-1.9-0.8-2.9-1.1V2.9c0-0.8-0.3-1.5-0.8-2.1C35.3,0.3,34.6,0,33.8,0h-6.1c-0.8,0-1.5,0.3-2,0.8c-0.6,0.6-0.9,1.3-0.9,2.1
	v4.5c-1,0.2-2,0.5-3,0.9c-1,0.4-1.9,0.8-2.7,1.3l-3.5-3.5c-0.5-0.6-1.2-0.9-2-0.9c-0.8,0-1.5,0.3-2.1,0.9l-4.3,4.3
	c-0.6,0.6-0.9,1.3-0.9,2.1c0,0.8,0.3,1.5,0.9,2.1l3.2,3.2c-0.6,0.9-1,1.7-1.5,2.7c-0.4,0.9-0.8,1.9-1.1,2.9H2.9
	c-0.8,0-1.5,0.3-2.1,0.9C0.3,24.7,0,25.4,0,26.2v6.1c0,0.8,0.3,1.5,0.8,2.1c0.6,0.6,1.3,0.9,2.1,0.9h4.4c0.2,1,0.5,2,0.9,3
	c0.4,1,0.8,1.9,1.3,2.8l-3.5,3.4c-0.6,0.6-0.9,1.2-0.9,2c0,0.8,0.3,1.5,0.9,2.1l4.3,4.3c0.6,0.5,1.3,0.8,2.1,0.8
	c0.8,0,1.5-0.3,2.1-0.8l3.2-3.2c0.9,0.5,1.8,1,2.7,1.5c0.9,0.4,1.9,0.8,2.9,1.1v4.9c0,0.8,0.3,1.5,0.8,2.1c0.6,0.6,1.3,0.9,2.1,0.9
	h6.1c0.8,0,1.5-0.3,2.1-0.9c0.6-0.6,0.9-1.3,0.9-2.1v-4.5c1-0.2,2-0.5,3-0.9c1-0.4,1.9-0.8,2.8-1.3l3.4,3.5c0.6,0.6,1.2,0.9,2.1,0.9
	c0.8,0,1.5-0.3,2.1-0.9l4.3-4.3c0.5-0.6,0.8-1.3,0.8-2.1c0-0.8-0.3-1.5-0.8-2.1l-3.2-3.2c0.6-0.9,1-1.7,1.5-2.7
	c0.4-0.9,0.8-1.9,1.1-2.9h4.9c0.8,0,1.5-0.3,2.1-0.8c0.6-0.6,0.9-1.3,0.9-2.1v-6.1c0-0.8-0.3-1.5-0.9-2.1c-0.6-0.6-1.3-0.9-2.1-0.9
	h-4.5c-0.2-1-0.5-2-0.9-2.9c-0.4-1-0.8-1.9-1.3-2.8l3.5-3.5c0.6-0.5,0.9-1.2,0.9-2c0-0.8-0.3-1.5-0.9-2.1L49.6,7.2L49.6,7.2z
	 M44,37.4c-2.7,5-7.9,8.4-14,8.4c-6,0-11.3-3.4-14-8.4c0.3-1.4,0.8-2.5,2.3-3.4c2.1-1.2,5.7-1.1,7.4-2.6l2.4,6.2l1.2-3.4l-0.6-0.6
	c-0.4-0.6-0.3-1.4,0.5-1.5c0.3,0,0.6,0,0.9,0c0.3,0,0.7,0,1,0c0.8,0.2,0.8,0.9,0.5,1.5l-0.6,0.6l1.2,3.4l2.1-6.2
	c1.5,1.4,5.7,1.7,7.4,2.6C43.1,34.9,43.6,36.1,44,37.4L44,37.4z M25.3,27.3c-0.2,0-0.4,0-0.6-0.1c-0.3-0.1-0.4-0.4-0.6-0.7
	c-0.3-0.6-0.5-2.1,0.2-2.5L24.2,24l0-0.2c0-0.3,0-0.7,0-1c0-1.4-0.1-3.1-1.2-3.5l-0.5-0.1l0.3-0.4c0.9-1.1,1.9-2.1,2.9-2.9
	c1.1-0.9,2.3-1.4,3.4-1.6c1.1-0.2,2.3,0.1,3.3,0.9c0.3,0.2,0.6,0.5,0.9,0.9c1.1,0.1,2,0.7,2.6,1.5c0.4,0.5,0.7,1.1,0.9,1.7
	c0.2,0.6,0.3,1.3,0.2,1.9c-0.1,1.1-0.5,2.3-1.4,3.1c0.2,0,0.3,0,0.4,0.1c0.5,0.3,0.5,0.8,0.4,1.3c-0.1,0.4-0.3,0.8-0.4,1.2
	c-0.2,0.5-0.5,0.6-1,0.5C33.8,32.4,26.8,32.6,25.3,27.3L25.3,27.3z M30,11.4c10.3,0,18.6,8.3,18.6,18.6c0,10.3-8.3,18.6-18.6,18.6
	c-10.3,0-18.6-8.3-18.6-18.6C11.4,19.7,19.7,11.4,30,11.4L30,11.4z"/>
</svg>
