<?xml version="1.0" encoding="utf-8"?>
<!-- Generator: Adobe Illustrator 25.2.1, SVG Export Plug-In . SVG Version: 6.00 Build 0)  -->
<svg version="1.1" id="Layer_1" xmlns="http://www.w3.org/2000/svg" xmlns:xlink="http://www.w3.org/1999/xlink" x="0px" y="0px"
	 viewBox="0 0 60 60" style="enable-background:new 0 0 60 60;" xml:space="preserve">
<style type="text/css">
	.st0{fill-rule:evenodd;clip-rule:evenodd;fill:#F3B500;}
</style>
<path class="st0" d="M39.1,13.3c1.6,0.9,3,2.1,4.2,3.4c1.2,1.3,2.1,2.8,2.8,4.5l0,0c0.4,0.9,0.7,1.9,0.9,2.9
	c0.5,2.2,0.5,4.5,0.1,6.8c-0.2,1.2-0.6,2.4-1,3.5l-0.1,0.1c-1,2.4-2.7,4.8-4.4,7.1c-0.8,1.2-1.7,2.3-2.4,3.5
	c-0.5,0.7-1.3,1.1-2.1,1.1l-13.3,2c-1.1,0.2-2.2-0.5-2.5-1.7c-0.3-1-0.7-1.9-1.2-2.8c-0.4-0.8-0.9-1.5-1.5-2.2
	c-0.7-0.8-1.4-1.6-2.1-2.5c-0.8-1-1.4-2.2-2-3.4l0,0c-0.6-1.2-1-2.5-1.4-3.9c-0.3-1.3-0.5-2.7-0.5-4.1l0,0c0-1.4,0.2-2.8,0.6-4.2
	c0.4-1.5,0.9-2.9,1.7-4.3L15,19c0.9-1.6,2.1-3,3.4-4.2c1.4-1.2,2.9-2.1,4.6-2.8l0.1-0.1c1.2-0.5,2.5-0.8,3.9-1
	c1.4-0.2,2.8-0.2,4.2-0.1c1.4,0.1,2.7,0.4,4.1,0.8C36.6,12.1,37.9,12.6,39.1,13.3z M37.2,55.6c-0.7,1.3-1.8,2.3-3,3
	c-1.1,0.6-2.3,1-3.5,1.1c-1.2,0.1-2.5-0.2-3.6-0.7c-0.8-0.4-1.5-0.9-2.1-1.6L37.2,55.6z M38.4,48.8v0.8v0.3c0,0.5,0,1,0,1.6
	l-0.2,1.2l-14.8,2.2l-0.3-0.6l-0.6-2.4v-0.7L38.4,48.8L38.4,48.8z M29.6,2.1c0-1,0.9-1.8,1.9-1.8l0,0h0.1c0.5,0,0.9,0.2,1.2,0.6
	c0.3,0.4,0.5,0.8,0.5,1.3l0,0c0,0,0,0.1,0,0.1l-0.1,4l0,0c0,0,0,0.1,0,0.1c-0.1,1-0.9,1.7-1.9,1.7l0,0h-0.1c-0.5,0-0.9-0.2-1.2-0.6
	c-0.3-0.4-0.5-0.8-0.5-1.3l0,0c0,0,0-0.1,0-0.1L29.6,2.1L29.6,2.1z M9.2,9C8.9,8.7,8.7,8.2,8.6,7.7c0-1,0.7-1.9,1.8-1.9c0,0,0,0,0,0
	c0.5,0,1,0.2,1.3,0.5l3,2.8c0.7,0.7,0.8,1.9,0.1,2.6c-0.3,0.4-0.8,0.6-1.3,0.6c-0.5,0-1-0.2-1.3-0.5L9.2,9z M4.4,29.5
	c-1,0-1.9-0.8-1.9-1.8c0,0,0,0,0,0c0-0.5,0.2-1,0.5-1.3c0.3-0.4,0.8-0.6,1.3-0.6l4.1-0.1c1,0,1.9,0.7,1.9,1.8c0,0,0,0,0,0v0l0,0v0.1
	c0,0.5-0.2,0.9-0.5,1.2c-0.3,0.4-0.8,0.6-1.3,0.6H8.4L4.4,29.5L4.4,29.5z M55.5,23.7L55.5,23.7c0.5,0,1,0.1,1.3,0.4
	c0.4,0.3,0.6,0.8,0.7,1.3l0,0c0,0,0,0,0,0.1c0,1-0.7,1.8-1.7,1.9l-4,0.5c-1,0.1-1.9-0.6-2-1.7c-0.1-1,0.6-1.9,1.7-2
	C52.8,24,54.2,23.9,55.5,23.7L55.5,23.7z M47.5,7.5c0.6-0.8,1.7-1.1,2.6-0.5c0,0,0,0,0,0l0,0c0.4,0.3,0.7,0.7,0.8,1.2
	c0.1,0.5,0,1-0.3,1.4L48.3,13c-0.6,0.9-1.7,1.1-2.6,0.5c-0.9-0.6-1.1-1.7-0.5-2.6L47.5,7.5L47.5,7.5z M32.1,26.8H35
	c0.4,0,0.7,0.3,0.7,0.7l0,0c0,0.1,0,0.3-0.1,0.4l-6.8,11.6c-0.2,0.4-0.7,0.5-1,0.3c0,0,0,0,0,0c-0.3-0.2-0.4-0.5-0.3-0.8l1-7.1
	L25.1,32c-0.4,0-0.7-0.3-0.8-0.7c0,0,0,0,0,0c0-0.1,0-0.3,0.1-0.4l6.7-11.6c0.2-0.4,0.7-0.5,1-0.3c0.3,0.1,0.4,0.4,0.4,0.7
	L32.1,26.8L32.1,26.8z"/>
</svg>
