<?xml version="1.0" encoding="utf-8"?>
<!-- Generator: Adobe Illustrator 25.2.1, SVG Export Plug-In . SVG Version: 6.00 Build 0)  -->
<svg version="1.1" id="Layer_1" xmlns="http://www.w3.org/2000/svg" xmlns:xlink="http://www.w3.org/1999/xlink" x="0px" y="0px"
	 viewBox="0 0 60 60" style="enable-background:new 0 0 60 60;" xml:space="preserve">
<style type="text/css">
	.st0{fill:#B8962E;}
</style>
<g>
	<path class="st0" d="M39.2,34.5c5.7,0.8,10.6,2.2,14.1,4.1c4,2.2,6.3,5,6.3,8.3c0,4-3.6,7.5-9.5,9.8c-5.2,2-12.2,3.3-20,3.3
		c-7.8,0-14.8-1.3-20-3.3c-5.9-2.3-9.5-5.7-9.5-9.8c0-3.3,2.4-6.2,6.5-8.4c3.6-1.9,8.6-3.4,14.4-4.1l0.6,4.9
		c-5.2,0.7-9.6,1.9-12.7,3.6c-2.4,1.3-3.8,2.7-3.8,4c0,1.8,2.4,3.6,6.3,5.1c4.6,1.8,11,2.9,18.2,2.9s13.6-1.1,18.2-2.9
		c3.9-1.5,6.3-3.4,6.3-5.1c0-1.3-1.4-2.7-3.7-3.9c-3-1.6-7.3-2.9-12.3-3.6L39.2,34.5L39.2,34.5z M32.4,21.7v24.8h-5V21.7
		c-4.9-1.1-8.5-5.5-8.5-10.7c0-6.1,4.9-11,11-11c6.1,0,11,4.9,11,11C40.9,16.2,37.2,20.5,32.4,21.7L32.4,21.7z"/>
</g>
</svg>
