<?xml version="1.0" encoding="utf-8"?>
<!-- Generator: Adobe Illustrator 25.2.1, SVG Export Plug-In . SVG Version: 6.00 Build 0)  -->
<svg version="1.1" id="Layer_1" xmlns="http://www.w3.org/2000/svg" xmlns:xlink="http://www.w3.org/1999/xlink" x="0px" y="0px"
	 viewBox="0 0 60 60" style="enable-background:new 0 0 60 60;" xml:space="preserve">
<style type="text/css">
	.st0{fill:#F3B500;}
</style>
<path class="st0" d="M59,35H37c-0.6,0-1,0.4-1,1v23c0,0.6,0.4,1,1,1h22c0.6,0,1-0.4,1-1V36C60,35.4,59.6,35,59,35z M50.5,53.5
	c0,1.4-1.1,2.5-2.5,2.5s-2.5-1.1-2.5-2.5v-0.8h5V53.5z M50.5,50.5v0.8h-5v-0.8c-3-1.4-4.3-4.9-3-8c1.4-3,4.9-4.3,8-3
	c3,1.4,4.3,4.9,3,8C52.9,48.9,51.8,49.9,50.5,50.5z"/>
<path class="st0" d="M23,35H1c-0.6,0-1,0.4-1,1v23c0,0.6,0.4,1,1,1h22c0.6,0,1-0.4,1-1V36C24,35.4,23.6,35,23,35z M14.5,53.5
	c0,1.4-1.1,2.5-2.5,2.5s-2.5-1.1-2.5-2.5v-0.8h5V53.5z M14.5,50.5v0.8h-5v-0.8c-3-1.4-4.3-4.9-3-8c1.4-3,4.9-4.3,8-3
	c3,1.4,4.3,4.9,3,8C16.9,48.9,15.8,49.9,14.5,50.5z"/>
<rect x="22.4" y="22.8" transform="matrix(0.8776 -0.4793 0.4793 0.8776 -8.5575 14.1369)" class="st0" width="2" height="2"/>
<rect x="38.2" y="14.2" transform="matrix(0.8776 -0.4793 0.4793 0.8776 -2.4893 20.6546)" class="st0" width="2" height="2"/>
<rect x="26" y="10.6" transform="matrix(0.8775 -0.4796 0.4796 0.8775 -2.2614 14.3719)" class="st0" width="2" height="2"/>
<rect x="21.7" y="16" transform="matrix(0.2812 -0.9597 0.9597 0.2812 4.249614e-03 33.9742)" class="st0" width="2" height="2"/>
<rect x="38.9" y="21.1" transform="matrix(0.2817 -0.9595 0.9595 0.2817 7.5323 54.166)" class="st0" width="2" height="2"/>
<rect x="27.7" y="27.1" transform="matrix(0.28 -0.96 0.96 0.28 -6.2842 47.8267)" class="st0" width="2" height="2"/>
<rect x="32.8" y="9.9" transform="matrix(0.28 -0.96 0.96 0.28 13.9108 40.2669)" class="st0" width="2" height="2"/>
<path class="st0" d="M27.4,15c-2.5,2.2-2.7,6-0.6,8.5c1.2,1.4,3.1,2.2,4.9,2l0.4,0.7l4.4-2.4l-0.4-0.7c2-2.6,1.5-6.4-1.2-8.4
	C32.6,13,29.5,13.1,27.4,15z"/>
<path class="st0" d="M32.8,27.5l0.4,0.7c0.7,1.2,2.2,1.7,3.4,1c1.2-0.7,1.7-2.2,1-3.4l-0.4-0.7L32.8,27.5z"/>
<path class="st0" d="M50.8,26L36.9,0.5C36.6,0,36-0.1,35.5,0.1L12.7,12.6c-0.5,0.3-0.7,0.9-0.4,1.4c0,0,0,0,0,0l13.9,25.4
	c0.1,0.2,0.3,0.4,0.6,0.5c0.1,0,0.2,0,0.3,0c0.2,0,0.3,0,0.5-0.1l22.8-12.4C50.9,27.1,51,26.5,50.8,26z M27.5,37.6L14.5,13.9
	L35.6,2.4L48.5,26L27.5,37.6z"/>
</svg>
