<?xml version="1.0" encoding="utf-8"?>
<!-- Generator: Adobe Illustrator 25.2.1, SVG Export Plug-In . SVG Version: 6.00 Build 0)  -->
<svg version="1.1" id="Layer_1" xmlns="http://www.w3.org/2000/svg" xmlns:xlink="http://www.w3.org/1999/xlink" x="0px" y="0px"
	 viewBox="0 0 60 60" style="enable-background:new 0 0 60 60;" xml:space="preserve">
<style type="text/css">
	.st0{fill-rule:evenodd;clip-rule:evenodd;fill:#B8962E;}
</style>
<path class="st0" d="M1.4,49.6H7c-0.2-0.2-0.3-0.5-0.3-0.7v-23c0-0.6,0.5-1.1,1.1-1.1l0,0H52c0.6,0,1.1,0.5,1.1,1.1v23
	c0,0.3-0.1,0.5-0.3,0.7h5.9c0.8,0,1.5,0.7,1.5,1.5c0,0.8-0.7,1.5-1.5,1.5H1.4c-0.8,0-1.5-0.7-1.5-1.5C-0.1,50.3,0.6,49.6,1.4,49.6z
	 M43.1,18.1h-3v4.7H38v-5.7c0-0.6,0.5-1,1-1c0,0,0,0,0,0h4c0.6-1.6,2.4-2.4,4-1.8c1.6,0.6,2.4,2.4,1.8,4c-0.6,1.6-2.4,2.4-4,1.8
	C44,19.7,43.4,19,43.1,18.1L43.1,18.1z M21.4,18.8v4h-2.1v-2.9h-2.4c-0.6,1.6-2.3,2.4-3.9,1.8c-1.6-0.6-2.4-2.3-1.8-3.9
	c0.6-1.6,2.3-2.4,3.9-1.8c0.9,0.3,1.5,1,1.8,1.8h3.5c0.3,0,0.5,0.1,0.7,0.3C21.3,18.3,21.5,18.6,21.4,18.8z M16.1,7.3
	c-1.7,0-3.1,1.4-3.1,3.1c0,1.7,1.4,3.1,3.1,3.1c1.2,0,2.3-0.7,2.8-1.8h6.2v11.2h2.1V10.6c0-0.6-0.5-1-1-1.1c0,0,0,0,0,0H19
	C18.7,8.2,17.5,7.3,16.1,7.3L16.1,7.3z M33.1,7.4c-1.7,0-3.1,1.4-3.1,3.1c0,1.3,0.8,2.5,2,2.9v9.4h2.1v-9.4c1.6-0.6,2.4-2.3,1.9-3.9
	C35.6,8.2,34.4,7.4,33.1,7.4z M24.9,30.9c0-0.9,0.3-1.9,0.8-2.7h8.6c0.5,0.8,0.8,1.7,0.8,2.7c0,2.8-2.3,5.1-5.1,5.1
	C27.2,35.9,24.9,33.7,24.9,30.9z M44.6,31v1.1c0,1-0.8,1.8-1.8,1.8H41c-0.2,1-0.6,2-1.1,2.9l1.2,1.2c0.7,0.7,0.7,1.8,0,2.5l-1.5,1.5
	c-0.7,0.7-1.8,0.7-2.5,0L35.9,41c-0.9,0.6-2,1-3,1.3v1.5c0,1-0.8,1.8-1.8,1.8h-2.1c-1,0-1.8-0.8-1.8-1.8v-1.5C26,42,25,41.6,24.1,41
	L23,42.1c-0.7,0.7-1.8,0.7-2.5,0l-1.5-1.5c-0.7-0.7-0.7-1.8,0-2.5l1.2-1.2c-0.5-0.9-0.9-1.9-1.1-3h-1.8c-1,0-1.8-0.8-1.8-1.8V30
	c0-1,0.8-1.7,1.7-1.8h6c-0.3,0.8-0.4,1.6-0.4,2.5c0,0.1,0,0.3,0,0.4c0,0.1,0,0.3,0,0.4c0,4,3.2,7.3,7.3,7.3s7.3-3.2,7.3-7.3
	c0-0.1,0-0.3,0-0.4c0-0.1,0-0.3,0-0.4c0-0.8-0.1-1.7-0.4-2.5h6.1c1,0,1.7,0.8,1.7,1.8L44.6,31L44.6,31z M8.5,26.4h42.8v22.2H8.5
	V26.4z M28.3,50.4h3.5c0.3,0,0.6,0.3,0.6,0.6l0,0c0,0.3-0.3,0.6-0.6,0.6c0,0,0,0,0,0h-3.5c-0.3,0-0.6-0.3-0.6-0.6c0,0,0,0,0,0l0,0
	C27.7,50.6,27.9,50.4,28.3,50.4L28.3,50.4z"/>
</svg>
