<?xml version="1.0" encoding="utf-8"?>
<!-- Generator: Adobe Illustrator 25.2.1, SVG Export Plug-In . SVG Version: 6.00 Build 0)  -->
<svg version="1.1" id="Layer_1" xmlns="http://www.w3.org/2000/svg" xmlns:xlink="http://www.w3.org/1999/xlink" x="0px" y="0px"
	 viewBox="0 0 60 60" style="enable-background:new 0 0 60 60;" xml:space="preserve">
<style type="text/css">
	.st0{fill-rule:evenodd;clip-rule:evenodd;fill:#F3B500;}
</style>
<g>
	<path class="st0" d="M14.6,57.2c2.9,0,5.3-2.1,5.3-4.7c0-0.9-0.3-1.8-0.8-2.5h0.1c-2.3-2.5-2.1-4.6,0.4-5.3h8.1
		c0.9,0,1.7-0.7,1.7-1.7v-7.2c0.6-4.9,2.7-3.4,5.1-1.9c6,3.7,9.9-5,5.1-8c-3.8-2.3-5.4,1.7-8.2,1.3c-1.1-0.2-1.8-1.3-2-3.1V17
		c0-0.9-0.7-1.7-1.7-1.7h-7.1c-3.4-0.4-4-2.7-1.4-5.5h-0.1c0.5-0.7,0.8-1.6,0.8-2.5c0-2.6-2.3-4.7-5.3-4.7c-2.9,0-5.3,2.1-5.3,4.7
		c0,0.9,0.3,1.8,0.8,2.5h0c2.6,2.8,2,5.1-1.4,5.5H1.7C0.8,15.3,0,16.1,0,17v7.4c0.5,3,2.7,3.5,5.5,1v0c0.7-0.5,1.6-0.8,2.5-0.8
		c2.6,0,4.7,2.4,4.7,5.3c0,2.9-2.1,5.3-4.7,5.3c-0.9,0-1.8-0.3-2.5-0.8v0.1c-2.7-2.5-4.9-2-5.5,1V43c0,0.9,0.7,1.7,1.7,1.7h8.1
		c2.4,0.7,2.7,2.8,0.4,5.3h0c-0.5,0.7-0.8,1.6-0.8,2.5C9.4,55.1,11.7,57.2,14.6,57.2L14.6,57.2L14.6,57.2z M45.4,57.4L45.4,57.4
		c-2.9,0-5.3-2.1-5.3-4.7c0-0.9,0.3-1.8,0.8-2.5h0c2.3-2.5,2.1-4.6-0.4-5.3h-8.1c-0.9,0-1.7-0.7-1.7-1.7v-7.5
		c0.4-1.1,0.9-1.5,1.5-1.5c0.3,0,0.6,0.1,0.9,0.2c0.8,0.4,1.8,1.1,2.9,1.5c4.2,1.6,7.8-2.5,7.5-6.6c-0.1-0.9-0.4-1.9-1-2.7
		c-2.1-3.3-5.3-3.6-8.3-1.7c-1.6,1-2.8,1.7-3.5-0.6l0-7.1c0-0.9,0.7-1.7,1.7-1.7h7.1c3.4-0.4,4-2.7,1.4-5.5h0
		c-0.5-0.7-0.8-1.6-0.8-2.5c0-2.6,2.4-4.7,5.3-4.7h0c2.9,0,5.3,2.1,5.3,4.7c0,0.9-0.3,1.8-0.8,2.5h0c-2.6,2.8-2,5.1,1.4,5.5h7.1
		c0.9,0,1.7,0.7,1.7,1.7v7.4c-0.5,3-2.7,3.5-5.5,1v0c-0.7-0.5-1.6-0.8-2.5-0.8c-2.6,0-4.7,2.4-4.7,5.3c0,2.9,2.1,5.3,4.7,5.3
		c0.9,0,1.8-0.3,2.5-0.8v0.1c2.7-2.5,4.9-2,5.5,1v7.5c0,0.9-0.7,1.7-1.7,1.7h-8.1c-2.4,0.7-2.7,2.8-0.4,5.3h0
		c0.5,0.7,0.8,1.6,0.8,2.5C50.6,55.3,48.3,57.4,45.4,57.4L45.4,57.4L45.4,57.4z"/>
</g>
</svg>
