<?xml version="1.0" encoding="utf-8"?>
<!-- Generator: Adobe Illustrator 25.2.1, SVG Export Plug-In . SVG Version: 6.00 Build 0)  -->
<svg version="1.1" id="Layer_1" xmlns="http://www.w3.org/2000/svg" xmlns:xlink="http://www.w3.org/1999/xlink" x="0px" y="0px"
	 viewBox="0 0 60 60" style="enable-background:new 0 0 60 60;" xml:space="preserve">
<style type="text/css">
	.st0{fill-rule:evenodd;clip-rule:evenodd;fill:#F3B500;}
</style>
<path class="st0" d="M51.1,36.4c-0.2-0.2-0.5-0.2-0.8-0.2c-0.3,0.1-0.5,0.2-0.7,0.5l-1,1.4c-0.3-0.2-0.7-0.3-1.1-0.4
	c-0.4-0.1-0.7-0.2-1.1-0.2l-0.3-1.8c0-0.3-0.2-0.5-0.4-0.7c-0.2-0.2-0.5-0.2-0.8-0.2l-2.2,0.4c-0.3,0-0.5,0.2-0.7,0.4
	c-0.2,0.2-0.2,0.5-0.2,0.8l0.3,1.6c-0.4,0.1-0.7,0.3-1.1,0.5c-0.3,0.2-0.6,0.4-0.9,0.6l-1.5-1C38.4,38,38.1,38,37.8,38
	c-0.3,0.1-0.5,0.2-0.7,0.5l-1.3,1.8c-0.2,0.2-0.2,0.5-0.2,0.8c0,0.3,0.2,0.5,0.5,0.7l1.4,1c-0.2,0.3-0.3,0.7-0.4,1.1
	c-0.1,0.4-0.2,0.7-0.2,1.1l-1.8,0.3c-0.3,0-0.5,0.2-0.7,0.4c-0.2,0.2-0.2,0.5-0.2,0.8l0.4,2.2c0.1,0.3,0.2,0.5,0.4,0.7
	c0.2,0.2,0.5,0.2,0.8,0.2l1.6-0.3c0.1,0.4,0.3,0.7,0.5,1c0.2,0.3,0.4,0.6,0.6,0.9l-1,1.5c-0.2,0.2-0.2,0.5-0.2,0.8
	c0.1,0.3,0.2,0.5,0.5,0.7l1.9,1.3c0.2,0.2,0.5,0.2,0.8,0.2c0.3,0,0.5-0.2,0.7-0.4l1-1.4c0.4,0.2,0.7,0.3,1.1,0.4
	c0.4,0.1,0.7,0.2,1.1,0.2l0.3,1.8c0,0.3,0.2,0.5,0.4,0.7c0.2,0.2,0.5,0.2,0.8,0.2l2.2-0.4c0.3-0.1,0.5-0.2,0.7-0.4
	c0.2-0.2,0.2-0.5,0.2-0.8L48.8,54c0.4-0.1,0.7-0.3,1-0.5c0.3-0.2,0.7-0.4,1-0.6l1.5,1c0.2,0.2,0.5,0.2,0.8,0.2
	c0.3-0.1,0.5-0.2,0.7-0.5l1.3-1.9c0.2-0.2,0.2-0.5,0.2-0.8c0-0.3-0.2-0.5-0.4-0.7l-1.4-0.9c0.1-0.4,0.3-0.7,0.4-1.1
	c0.1-0.4,0.2-0.7,0.2-1.1l1.8-0.3c0.3,0,0.5-0.2,0.7-0.4c0.2-0.2,0.2-0.5,0.2-0.8l-0.4-2.2c-0.1-0.3-0.2-0.5-0.4-0.7
	c-0.2-0.2-0.5-0.2-0.8-0.2l-1.6,0.3c-0.2-0.4-0.3-0.7-0.5-1c-0.2-0.3-0.4-0.6-0.6-0.9l1-1.5c0.2-0.2,0.2-0.5,0.2-0.8
	c-0.1-0.3-0.2-0.5-0.5-0.7L51.1,36.4L51.1,36.4z M20.2,25.1c-0.4-0.1-0.7-0.2-1.1-0.3c-0.4-0.1-0.8-0.1-1.2-0.1
	c-0.4,0-0.7,0.1-1.1,0.1c0,0,0,0-0.1,0c-0.4,0.1-0.7,0.2-1.1,0.4c-0.3,0.1-0.6,0.3-0.9,0.5c-0.3,0.2-0.6,0.5-0.8,0.7
	c-0.3,0.3-0.5,0.6-0.7,0.9c-0.2,0.3-0.4,0.7-0.5,1c-0.1,0.4-0.2,0.7-0.3,1.1c-0.1,0.4-0.1,0.8-0.1,1.2c0,0.4,0.1,0.7,0.1,1.1
	c0,0,0,0,0,0.1c0.1,0.4,0.2,0.7,0.4,1.1c0.1,0.3,0.3,0.6,0.5,0.9c0.2,0.3,0.5,0.6,0.7,0.8c0.6,0.5,1.2,0.9,1.9,1.2
	c0.4,0.1,0.7,0.2,1.1,0.3c0.4,0.1,0.8,0.1,1.2,0.1c0.4,0,0.7-0.1,1.1-0.1c0,0,0,0,0.1,0c0.4-0.1,0.7-0.2,1.1-0.4
	c0.3-0.1,0.6-0.3,0.9-0.5c0.3-0.2,0.6-0.4,0.8-0.7c0.5-0.6,0.9-1.2,1.2-1.9c0.1-0.4,0.2-0.7,0.3-1.1c0.1-0.4,0.1-0.8,0.1-1.2
	c0-0.4-0.1-0.7-0.1-1.1c0,0,0,0,0-0.1c-0.1-0.4-0.2-0.7-0.4-1.1c-0.2-0.3-0.3-0.6-0.5-0.9c-0.2-0.3-0.5-0.6-0.7-0.8
	c-0.3-0.3-0.6-0.5-0.9-0.7C20.9,25.4,20.5,25.2,20.2,25.1L20.2,25.1z M31.2,18.2c0.3,0.2,0.6,0.4,0.8,0.7l2,2.8l0,0
	c0.2,0.3,0.4,0.6,0.4,0.9c0.1,0.3,0.1,0.7,0,1.1c-0.1,0.3-0.2,0.7-0.4,1c-0.2,0.3-0.4,0.5-0.7,0.7l-1.6,1.2c0,0,0,0.1,0,0.2
	c0.1,0.3,0.1,0.6,0.2,0.9c0,0,0,0,0,0c0.1,0.3,0.1,0.6,0.2,0.9v0.1l1.7,0.3c0.3,0.1,0.7,0.2,1,0.4c0.3,0.2,0.6,0.4,0.8,0.7l0,0
	c0.2,0.3,0.4,0.6,0.4,1c0.1,0.3,0.1,0.7,0,1l-0.6,3.4c-0.1,0.7-0.5,1.3-1.1,1.8c-0.3,0.2-0.6,0.4-1,0.4c-0.3,0.1-0.7,0.1-1,0l-2-0.3
	c0,0-0.1,0.1-0.1,0.1c-0.2,0.3-0.3,0.5-0.5,0.8s-0.4,0.5-0.5,0.8l-0.1,0.1l1,1.4l0,0.1c0.2,0.3,0.3,0.6,0.4,1c0.2,1-0.2,2.1-1,2.8
	l0,0l-2.8,2c-0.3,0.2-0.6,0.4-0.9,0.5c-0.3,0.1-0.7,0.1-1.1,0c-0.4-0.1-0.7-0.2-1-0.4c-0.3-0.2-0.6-0.4-0.8-0.7L22,44.1
	c-0.1,0-0.1,0-0.2,0c-0.3,0.1-0.6,0.1-0.9,0.2c-0.3,0.1-0.6,0.1-0.9,0.2c0,0-0.1,0-0.1,0l-0.3,1.7c-0.1,0.3-0.2,0.7-0.4,1
	c-0.2,0.3-0.4,0.6-0.7,0.8l0,0c-0.3,0.2-0.6,0.4-0.9,0.4c-0.3,0.1-0.7,0.1-1,0l-3.4-0.6c-0.7-0.1-1.3-0.5-1.8-1.1
	c-0.2-0.3-0.4-0.6-0.4-1c-0.1-0.3-0.1-0.7,0-1l0.3-2l-0.1-0.1c-0.3-0.2-0.5-0.3-0.8-0.5C10,42,9.7,41.8,9.5,41.6l-0.1-0.1L8,42.6
	l-0.1,0c-0.3,0.2-0.6,0.3-1,0.4c-0.7,0.1-1.4,0-2-0.3c-0.3-0.2-0.6-0.4-0.8-0.7l0,0l-2-2.8c-0.2-0.3-0.4-0.6-0.4-0.9
	c-0.1-0.3-0.1-0.7,0-1.1c0.1-0.3,0.2-0.7,0.4-1c0.2-0.3,0.4-0.6,0.7-0.8l1.7-1.2c0-0.1,0-0.1,0-0.2c-0.1-0.3-0.1-0.6-0.2-0.9
	c-0.1-0.3-0.1-0.6-0.2-0.9v-0.1l-1.7-0.3c-0.7-0.1-1.3-0.5-1.7-1.1l0,0c-0.2-0.3-0.3-0.6-0.4-0.9c-0.1-0.3-0.1-0.7,0-1l0.6-3.4
	c0.1-0.3,0.2-0.7,0.4-1c0.2-0.3,0.4-0.6,0.7-0.8c0.3-0.2,0.6-0.4,1-0.4c0.3-0.1,0.7-0.1,1.1,0l2,0.3l0.1-0.1
	c0.2-0.3,0.3-0.5,0.5-0.8c0.2-0.3,0.4-0.5,0.5-0.8L7,21.8l-1-1.5c-0.2-0.3-0.4-0.6-0.4-1c-0.1-0.3-0.1-0.7,0-1.1
	c0.1-0.3,0.2-0.7,0.4-1C6,17,6.3,16.7,6.6,16.5l2.8-2l0,0c0.3-0.2,0.6-0.4,0.9-0.4c0.3-0.1,0.7-0.1,1.1,0c0.3,0.1,0.7,0.2,1,0.4
	c0.3,0.2,0.5,0.4,0.7,0.7l1.2,1.6c0,0,0.1,0,0.1,0c0.3-0.1,0.6-0.1,0.9-0.2c0.3-0.1,0.6-0.1,0.9-0.2c0,0,0.1,0,0.1,0l0.3-1.7
	c0.1-0.3,0.2-0.7,0.4-1c0.2-0.3,0.4-0.6,0.7-0.8l0,0c0.3-0.2,0.6-0.3,0.9-0.4c0.3-0.1,0.7-0.1,1,0l3.4,0.6c0.3,0.1,0.7,0.2,1,0.4
	c0.3,0.2,0.6,0.4,0.8,0.7c0.2,0.3,0.4,0.6,0.4,1c0.1,0.3,0.1,0.7,0,1.1l-0.3,2l0.1,0.1c0.3,0.2,0.5,0.3,0.8,0.5s0.5,0.4,0.8,0.5
	l0.1,0.1l1.4-1c0.3-0.2,0.6-0.4,1-0.4c0.3-0.1,0.7-0.1,1.1,0C30.6,17.8,30.9,18,31.2,18.2L31.2,18.2L31.2,18.2z M18.1,20.6
	c5.4,0,9.9,4.4,9.9,9.8s-4.4,9.9-9.8,9.9c-5.4,0-9.9-4.4-9.9-9.8c0,0,0,0,0,0C8.3,25,12.7,20.6,18.1,20.6L18.1,20.6z M46.2,28.1
	l10.7-10.6v4.5c0,0.9,0.7,1.6,1.6,1.6c0.9,0,1.6-0.7,1.6-1.6v-8.2l0,0c0-0.9-0.7-1.5-1.5-1.5c0,0-0.1,0-0.1,0h-7.7
	c-0.9,0-1.6,0.6-1.6,1.5c0,0.9,0.6,1.6,1.5,1.6c0.1,0,0.1,0,0.2,0h4.1L44,25.9L46.2,28.1L46.2,28.1z M34,14.2l6-6.1v4.5
	c0,0.9,0.7,1.6,1.6,1.6c0.9,0,1.6-0.7,1.6-1.6V4.3l0,0c0-0.9-0.7-1.5-1.5-1.6c0,0-0.1,0-0.1,0h-7.7c-0.9,0-1.6,0.7-1.6,1.6
	s0.7,1.6,1.6,1.6c0,0,0,0,0,0h4.1l-6,6.2L34,14.2L34,14.2z M44.6,41.7c0.6-0.1,1.2-0.1,1.8,0c0.6,0.1,1.1,0.4,1.6,0.7
	c0.5,0.3,0.9,0.8,1.2,1.2c0.3,0.5,0.5,1,0.6,1.6c0.1,0.6,0.1,1.2,0,1.8c-0.1,0.6-0.4,1.1-0.7,1.6c-0.3,0.5-0.7,0.9-1.2,1.2
	c-0.5,0.3-1,0.5-1.6,0.6c-1.2,0.2-2.4-0.1-3.3-0.7c-0.5-0.3-0.9-0.8-1.2-1.2c-0.3-0.5-0.5-1-0.6-1.6c-0.3-1.8,0.4-3.5,2-4.5
	C43.5,42,44.1,41.8,44.6,41.7L44.6,41.7z"/>
</svg>
