<?xml version="1.0" encoding="utf-8"?>
<!-- Generator: Adobe Illustrator 25.2.1, SVG Export Plug-In . SVG Version: 6.00 Build 0)  -->
<svg version="1.1" id="Layer_1" xmlns="http://www.w3.org/2000/svg" xmlns:xlink="http://www.w3.org/1999/xlink" x="0px" y="0px"
	 viewBox="0 0 60 60" style="enable-background:new 0 0 60 60;" xml:space="preserve">
<style type="text/css">
	.st0{fill-rule:evenodd;clip-rule:evenodd;fill:#B8962E;}
</style>
<g>
	<path class="st0" d="M49.6,7.2l4.3,4.3c1.1,1.1,1.1,3,0,4.1l-3.5,3.5c1,1.8,1.7,3.7,2.2,5.7h4.5c1.6,0,2.9,1.3,2.9,2.9v6.1
		c0,1.6-1.3,2.9-2.9,2.9h-4.9c-0.6,2-1.5,3.9-2.5,5.6l3.2,3.2c1.1,1.1,1.1,3,0,4.1l-4.3,4.3c-1.1,1.1-3,1.1-4.1,0l-3.5-3.5
		c-1.8,1-3.7,1.7-5.7,2.2v4.5c0,1.6-1.3,2.9-2.9,2.9h-6.1c-1.6,0-2.9-1.3-2.9-2.9v-4.9c-2-0.6-3.9-1.5-5.6-2.5l-3.2,3.2
		c-1.1,1.1-3,1.1-4.1,0l-4.3-4.3c-1.1-1.1-1.1-3,0-4.1l3.5-3.5c-1-1.8-1.7-3.7-2.2-5.7H2.9c-1.6,0-2.9-1.3-2.9-2.9v-6.1
		c0-1.6,1.3-2.9,2.9-2.9h4.9c0.6-2,1.5-3.9,2.5-5.6l-3.2-3.2c-1.1-1.1-1.1-3,0-4.1l4.3-4.3c1.1-1.1,3-1.1,4.1,0l3.5,3.5
		c1.8-1,3.7-1.7,5.7-2.2V2.9c0-1.6,1.3-2.9,2.9-2.9h6.1c1.6,0,2.9,1.3,2.9,2.9v4.9c2,0.6,3.9,1.5,5.6,2.5l3.2-3.2
		C46.6,6,48.5,6,49.6,7.2L49.6,7.2z M30,18c6.6,0,12,5.4,12,12c0,6.6-5.4,12-12,12c-6.6,0-12-5.4-12-12C18,23.4,23.4,18,30,18L30,18
		z"/>
</g>
</svg>
