<?xml version="1.0" encoding="utf-8"?>
<!-- Generator: Adobe Illustrator 25.2.1, SVG Export Plug-In . SVG Version: 6.00 Build 0)  -->
<svg version="1.1"
	 id="Layer_1" shape-rendering="geometricPrecision" text-rendering="geometricPrecision" image-rendering="optimizeQuality"
	 xmlns="http://www.w3.org/2000/svg" xmlns:xlink="http://www.w3.org/1999/xlink" x="0px" y="0px" viewBox="0 0 60 60"
	 style="enable-background:new 0 0 60 60;" xml:space="preserve">
<style type="text/css">
	.st0{fill-rule:evenodd;clip-rule:evenodd;fill:#B8962E;}
</style>
<path class="st0" d="M43.2,22.3c-3.9-7-10.6-11.5-19.3-10.5c-8.1,0.9-15.5,6.8-17.2,15.4c-1.5,7.3,1.3,14.2,6.2,18.9
	c5.7,5.5,14.4,7.9,22.6,4.2c4.2-1.9,7.1-4.3,9.2-7.4c0.2-0.3,0.5-0.8,0.9-1.1c1.2-0.9,2.7,0.2,2.5,1.5c-0.1,0.3-0.2,0.6-0.4,0.9
	c-1.8,2.8-3.7,4.9-6.3,6.8c-5.8,4.5-13.4,6.5-21,4.9C13.3,54.5,7.5,50.3,4,44.5c-6.2-10-4.8-22.1,1.7-30.5c4-5.2,10-9.1,17.3-10.2
	c12.3-1.9,24.7,5,28.7,15.9l5-1.6c1.4-0.4,2.9,0.3,3.3,1.7c0.2,0.6,0.2,1.3-0.1,1.9l-5.7,12.7c-0.6,1.3-2.1,1.9-3.5,1.3l-0.2-0.1
	l0,0l-12.5-6.9c-1.3-0.7-1.7-2.3-1-3.6c0.4-0.7,1-1.1,1.7-1.3L43.2,22.3L43.2,22.3z"/>
</svg>
