<?xml version="1.0" encoding="utf-8"?>
<!-- Generator: Adobe Illustrator 25.2.1, SVG Export Plug-In . SVG Version: 6.00 Build 0)  -->
<svg version="1.1"
	 id="Layer_1" shape-rendering="geometricPrecision" text-rendering="geometricPrecision" image-rendering="optimizeQuality"
	 xmlns="http://www.w3.org/2000/svg" xmlns:xlink="http://www.w3.org/1999/xlink" x="0px" y="0px" viewBox="0 0 60 60"
	 style="enable-background:new 0 0 60 60;" xml:space="preserve">
<style type="text/css">
	.st0{fill:#B8962E;}
</style>
<path class="st0" d="M20.4,0h22.8c2.5,0,4.7,1,6.4,2.7c1.6,1.6,2.7,3.9,2.7,6.4V51c0,2.5-1,4.7-2.7,6.4l0,0C47.9,59,45.7,60,43.2,60
	H20.4c-2.5,0-4.7-1-6.4-2.7c-1.6-1.6-2.7-3.9-2.7-6.4v-8.7h4.4V51c0,1.3,0.5,2.4,1.4,3.3c0.8,0.8,2,1.4,3.3,1.4h22.8
	c1.3,0,2.4-0.5,3.3-1.4c0.8-0.8,1.4-2,1.4-3.3V9c0-1.3-0.5-2.4-1.4-3.3c-0.8-0.8-2-1.4-3.3-1.4H20.4c-1.3,0-2.4,0.5-3.3,1.4
	c-0.8,0.8-1.4,2-1.4,3.3v8.7h-4.4V9c0-2.5,1-4.7,2.7-6.4S17.9,0,20.4,0z M27.3,19l11.4,10.7L26.8,41l-3-3.2l6-5.7l-22,0v-4.4l22.5,0
	l-6-5.6L27.3,19L27.3,19z"/>
</svg>
