<?xml version="1.0" encoding="utf-8"?>
<!-- Generator: Adobe Illustrator 25.2.1, SVG Export Plug-In . SVG Version: 6.00 Build 0)  -->
<svg version="1.1"
	 id="Layer_1" shape-rendering="geometricPrecision" text-rendering="geometricPrecision" image-rendering="optimizeQuality"
	 xmlns="http://www.w3.org/2000/svg" xmlns:xlink="http://www.w3.org/1999/xlink" x="0px" y="0px" viewBox="0 0 60 60"
	 style="enable-background:new 0 0 60 60;" xml:space="preserve">
<style type="text/css">
	.st0{fill:#B8962E;}
</style>
<path class="st0" d="M42.1,23.2c-1.6,0.8-3,1.8-4.4,2.9l-2.4-2.7c1.7-1.6,3.8-2.9,5.9-3.8c-4.4-7.8-15-9.8-22.1-4.4
	c-2.5,2-4.5,4.9-5.2,8.8l-0.2,1.2l-1.2,0.2c-1.2,0.2-2.3,0.5-3.2,0.9c-5.8,2.3-7.5,8.8-3.9,13.7c1.5,2.1,3.5,4.2,6,4.6h3.6
	c0,0.4,0,0.7,0,1.1c0,0.9,0.1,1.7,0.2,2.5h-3.8l-0.2,0c-3.6-0.5-6.5-3.1-8.6-6.1c-5-6.8-2.5-16,5.5-19.1c0.8-0.3,1.7-0.6,2.7-0.8
	c1.1-4.3,3.4-7.5,6.3-9.8c9-7,22.6-4,27.8,6.3c0.8-0.1,1.6-0.2,2.3-0.2c11.6,0.1,16.2,14.9,10.2,22.9c-2.4,3.2-6.1,5.9-9.9,6.8
	l-0.4,0h-2.3c0.2-1.2,0.3-2.4,0.2-3.6h1.9c2.8-0.7,5.8-3,7.6-5.4c4.3-5.7,1.2-17.1-7.3-17.2C45.5,22.1,43.8,22.5,42.1,23.2
	L42.1,23.2z M27.5,51.4h5c1.2,0,2.1-1,2.1-2.1v-6.9h3.6c0.8,0,1.3-0.3,1.6-0.8c0.9-1.3-0.3-2.5-1.1-3.4c-2.3-2.5-6.2-6.2-7.4-7.6
	c-0.9-0.9-2.1-0.9-2.9,0C27.3,32,23.2,36,21,38.4c-0.8,0.9-1.7,2-0.9,3.2c0.3,0.5,0.9,0.7,1.6,0.8h3.6v6.9
	C25.4,50.4,26.3,51.4,27.5,51.4L27.5,51.4z"/>
</svg>
