<?xml version="1.0" encoding="utf-8"?>
<!-- Generator: Adobe Illustrator 25.2.1, SVG Export Plug-In . SVG Version: 6.00 Build 0)  -->
<svg version="1.1" id="Layer_1" xmlns="http://www.w3.org/2000/svg" xmlns:xlink="http://www.w3.org/1999/xlink" x="0px" y="0px"
	 viewBox="0 0 60 60" style="enable-background:new 0 0 60 60;" xml:space="preserve">
<style type="text/css">
	.st0{fill-rule:evenodd;clip-rule:evenodd;}
</style>
<g>
	<path class="st0" d="M40.9,51.8c-2.7,3-5.9,5.6-9.4,7.8c-0.4,0.3-1,0.4-1.5,0c-5.2-3.3-9.6-7.3-13.1-11.7C12,41.9,9,35.3,8,28.9
		c-1-6.5-0.1-12.7,3.2-17.8c1.3-2,2.9-3.8,4.9-5.4C20.6,2,25.8,0.1,31,0.2c5,0,9.9,1.9,14.2,5.8c1.5,1.4,2.8,2.9,3.8,4.6
		c3.5,5.7,4.2,13,2.7,20.4C50.1,38.3,46.4,45.7,40.9,51.8L40.9,51.8L40.9,51.8z M30,11.7c6.2,0,11.1,5,11.1,11.1
		C41.1,29,36.2,34,30,34c-6.2,0-11.1-5-11.1-11.1C18.8,16.7,23.8,11.7,30,11.7L30,11.7z"/>
</g>
</svg>
