<?xml version="1.0" encoding="utf-8"?>
<!-- Generator: Adobe Illustrator 25.2.1, SVG Export Plug-In . SVG Version: 6.00 Build 0)  -->
<svg version="1.1" id="Layer_1" xmlns="http://www.w3.org/2000/svg" xmlns:xlink="http://www.w3.org/1999/xlink" x="0px" y="0px"
	 viewBox="0 0 80 80" style="enable-background:new 0 0 80 80;" xml:space="preserve">
<style type="text/css">
	.st0{fill:#002336;}
</style>
<path class="st0" d="M55.2,77.8H24.8c-13.5,0-24.4-10.9-24.4-24.4V26.6c0-13.5,10.9-24.4,24.4-24.4h30.3c13.5,0,24.4,10.9,24.4,24.4
	v26.7C79.6,66.9,68.7,77.8,55.2,77.8z M24.8,7.6c-10.5,0-19,8.5-19,19v26.7c0,10.5,8.5,19,19,19h30.3c10.5,0,19-8.5,19-19V26.6
	c0-10.5-8.5-19-19-19H24.8z"/>
<path class="st0" d="M40,61.8C28,61.8,18.2,52,18.2,40c0-12,9.7-21.8,21.8-21.8c12,0,21.8,9.7,21.8,21.8v0C61.7,52,52,61.7,40,61.8z
	 M40,23.7c-9,0-16.3,7.3-16.3,16.3c0,9,7.3,16.3,16.3,16.3c9,0,16.3-7.3,16.3-16.3c0,0,0,0,0,0C56.3,31,49,23.7,40,23.7L40,23.7z"/>
<circle class="st0" cx="61.4" cy="18.9" r="4.5"/>
</svg>
