<?xml version="1.0" encoding="utf-8"?>
<!-- Generator: Adobe Illustrator 25.2.1, SVG Export Plug-In . SVG Version: 6.00 Build 0)  -->
<svg version="1.1" id="Layer_1" xmlns="http://www.w3.org/2000/svg" xmlns:xlink="http://www.w3.org/1999/xlink" x="0px" y="0px"
	 viewBox="0 0 60 60" style="enable-background:new 0 0 60 60;" xml:space="preserve">
<style type="text/css">
	.st0{fill:#FFFFFF;}
</style>
<path class="st0" d="M41.5,58.6H18.5c-10.2,0-18.4-8.3-18.5-18.4V19.9C0.1,9.7,8.4,1.5,18.5,1.4h22.9c10.2,0,18.4,8.3,18.5,18.4
	v20.2C59.9,50.3,51.6,58.5,41.5,58.6z M18.5,5.6C10.6,5.6,4.2,12,4.2,19.9v20.2c0,7.9,6.4,14.3,14.4,14.3h22.9
	c7.9,0,14.3-6.4,14.4-14.3V19.9c0-7.9-6.4-14.3-14.4-14.3H18.5z"/>
<path class="st0" d="M30,46.4c-9.1,0-16.4-7.4-16.4-16.4S20.9,13.6,30,13.6S46.4,20.9,46.4,30S39.1,46.4,30,46.4z M30,17.7
	c-6.8,0-12.3,5.5-12.3,12.3S23.2,42.3,30,42.3S42.3,36.8,42.3,30c0,0,0,0,0,0C42.3,23.2,36.8,17.7,30,17.7L30,17.7z"/>
<circle class="st0" cx="46.2" cy="14.1" r="3.4"/>
</svg>
