<?xml version="1.0" encoding="utf-8"?>
<!-- Generator: Adobe Illustrator 25.2.1, SVG Export Plug-In . SVG Version: 6.00 Build 0)  -->
<svg version="1.1" id="Layer_1" xmlns="http://www.w3.org/2000/svg" xmlns:xlink="http://www.w3.org/1999/xlink" x="0px" y="0px"
	 viewBox="0 0 60 60" style="enable-background:new 0 0 60 60;" xml:space="preserve">
<style type="text/css">
	.st0{fill:#FFFFFF;}
</style>
<path class="st0" d="M1,19.9h12.4v40H1V19.9z M7.2,0.1c4,0,7.2,3.2,7.2,7.2s-3.2,7.2-7.2,7.2c-4,0-7.2-3.2-7.2-7.2
	C0,3.3,3.2,0.1,7.2,0.1C7.2,0.1,7.2,0.1,7.2,0.1"/>
<path class="st0" d="M21.2,19.9h11.9v5.5h0.2C35,22.3,39,19,45.1,19C57.7,19,60,27.2,60,38v21.9H47.6V40.5c0-4.6-0.1-10.6-6.5-10.6
	c-6.5,0-7.5,5.1-7.5,10.3v19.8H21.2V19.9z"/>
</svg>
