<?xml version="1.0" encoding="utf-8"?>
<!-- Generator: Adobe Illustrator 25.2.1, SVG Export Plug-In . SVG Version: 6.00 Build 0)  -->
<svg version="1.1" id="Layer_1" xmlns="http://www.w3.org/2000/svg" xmlns:xlink="http://www.w3.org/1999/xlink" x="0px" y="0px"
	 viewBox="0 0 80 80" style="enable-background:new 0 0 80 80;" xml:space="preserve">
<style type="text/css">
	.st0{fill:#002336;}
</style>
<path class="st0" d="M79.1,48.5v27.7c0,0.7-0.6,1.2-1.2,1.2H63.6c-0.7,0-1.2-0.6-1.2-1.2V50.4c0-6.8-2.4-11.4-8.5-11.4
	c-3.9,0-7.4,2.4-8.7,6.1c-0.4,1.3-0.6,2.7-0.6,4.1v26.9c0,0.7-0.6,1.2-1.2,1.2H29.1c-0.7,0-1.2-0.6-1.2-1.2c0-6.8,0.2-40.1,0-47.8
	c0-0.7,0.5-1.2,1.2-1.3c0,0,0,0,0,0h14.2c0.7,0,1.2,0.6,1.2,1.2v5.9l-0.1,0.2h0.1v-0.2c3.1-5.4,8.9-8.6,15.1-8.3
	C70.9,25.8,79.1,33,79.1,48.5z M3.2,77.4h14.3c0.7,0,1.2-0.6,1.2-1.2V28.3c0-0.7-0.6-1.2-1.2-1.2H3.2c-0.7,0-1.2,0.6-1.2,1.2v47.8
	C1.9,76.8,2.5,77.4,3.2,77.4z"/>
<circle class="st0" cx="9.8" cy="11.6" r="9"/>
</svg>
