<?xml version="1.0" encoding="utf-8"?>
<!-- Generator: Adobe Illustrator 25.2.1, SVG Export Plug-In . SVG Version: 6.00 Build 0)  -->
<svg version="1.1" id="Layer_1" xmlns="http://www.w3.org/2000/svg" xmlns:xlink="http://www.w3.org/1999/xlink" x="0px" y="0px"
	 viewBox="0 0 60 60" style="enable-background:new 0 0 60 60;" xml:space="preserve">
<style type="text/css">
	.st0{fill:#FFFFFF;}
</style>
<g>
	<path class="st0" d="M16.5,24.7c2,3.6,4.3,7.1,7.4,10.3c3,3.2,6.8,6.1,11.7,8.6c0.4,0.2,0.7,0.2,1,0.1c0.5-0.2,0.9-0.6,1.4-1
		c0.4-0.4,0.8-0.9,1.3-1.6c1.9-2.5,4.2-5.5,7.5-4c0.1,0,0.1,0.1,0.2,0.1l10.9,6.3c0,0,0.1,0.1,0.1,0.1c1.4,1,2,2.5,2.1,4.3
		c0,1.8-0.6,3.7-1.6,5.4c-1.3,2.2-3.1,3.7-5.3,4.6c-2,0.9-4.3,1.4-6.5,1.8c-3.4,0.5-6.6,0.2-9.9-0.8c-3.2-1-6.4-2.6-10-4.8l-0.3-0.2
		c-1.6-1-3.4-2.1-5.1-3.4C15.2,45.7,8.8,38.9,4.6,31.3C1.1,25-0.8,18.2,0.3,11.7C0.8,8.1,2.4,4.9,5,2.7c2.3-1.9,5.5-2.9,9.5-2.5
		c0.5,0,0.9,0.3,1.1,0.7l7,11.9c1,1.3,1.2,2.6,0.6,4c-0.5,1.1-1.4,2.1-2.7,3c-0.4,0.3-0.8,0.6-1.3,1C17.7,21.9,15.9,23.2,16.5,24.7
		L16.5,24.7L16.5,24.7L16.5,24.7z"/>
</g>
</svg>
