<?xml version="1.0" encoding="utf-8"?>
<!-- Generator: Adobe Illustrator 25.2.1, SVG Export Plug-In . SVG Version: 6.00 Build 0)  -->
<svg version="1.1" id="Layer_1" xmlns="http://www.w3.org/2000/svg" xmlns:xlink="http://www.w3.org/1999/xlink" x="0px" y="0px"
	 viewBox="0 0 80 80" style="enable-background:new 0 0 80 80;" xml:space="preserve">
<style type="text/css">
	.st0{fill-rule:evenodd;clip-rule:evenodd;fill:#002336;}
</style>
<g>
	<path class="st0" d="M67.8,12.1C60.4,4.7,50.6,0.6,40.2,0.6c-21.5,0-39,17.5-39.1,39c0,6.9,1.8,13.6,5.2,19.5L0.8,79.4L21.5,74
		c5.7,3.1,12.1,4.8,18.7,4.8h0c21.5,0,39-17.5,39.1-39C79.2,29.2,75.2,19.4,67.8,12.1L67.8,12.1z M40.2,72.1L40.2,72.1
		c-5.8,0-11.5-1.6-16.5-4.5l-1.2-0.7l-12.3,3.2l3.3-12l-0.8-1.2c-3.3-5.2-5-11.2-5-17.3c0-17.9,14.6-32.4,32.5-32.4
		c8.7,0,16.8,3.4,22.9,9.5s9.5,14.3,9.5,23C72.6,57.6,58.1,72.1,40.2,72.1L40.2,72.1z"/>
	<path class="st0" d="M27.1,58.6c0.3,0.2,0.8,0.2,2.1,0.2c5.5,0,10.2,0,13.6,0c15.8,0,15.3-16.6,8-18.7c1.1-1.9,6-5.5,3-12.9
		c-3-7.3-15.9-5.7-24.8-5.7c-3.3,0-2.8,2.4-2.8,6.2c0,6,0,22.1,0,29C26.2,58.1,26.6,58.3,27.1,58.6z M33.9,52.5c1.5,0,5,0,8,0
		c3.4,0,6.4-1.6,6.4-5c-0.1-3.2-2.2-4.2-5.1-4.5c-2.8,0-6,0-9.2,0V52.5z M33.9,36.6c5.9-0.1,8.2,0.2,11.4-0.6c2.2-1.3,3.2-5.9,0-7.5
		c-2.2-1.1-8.7-0.7-11.5-0.6V36.6z"/>
</g>
</svg>
