<?xml version="1.0" encoding="UTF-8"?>
<svg xmlns="http://www.w3.org/2000/svg" version="1.1" viewBox="0 0 56 56">
  <defs>
    <style>
      .cls-1 {
        fill: #002336;
      }
    </style>
  </defs>
  <!-- Generator: Adobe Illustrator 28.6.0, SVG Export Plug-In . SVG Version: 1.2.0 Build 709)  -->
  <g>
    <g id="Layer_1">
      <path class="cls-1" d="M28,54.5c-4.6,0-9.2-1.2-13.2-3.5l-10.3,3.5,2.1-10.9c-3.3-4.5-5.1-10-5.1-15.5C1.5,13.4,13.4,1.5,28,1.5s26.5,11.8,26.5,26.5-11.8,26.5-26.5,26.5h0ZM15.3,46.6l.8.5c10.6,6.6,24.5,3.4,31.1-7.2,6.6-10.6,3.4-24.5-7.2-31.1-10.6-6.6-24.5-3.4-31.1,7.2-5,8-4.5,18.4,1.4,25.8l.6.7-1.2,6,5.6-2Z"/>
      <path class="cls-1" d="M14.6,17.8s1.6-2.7,2.8-2.8,2.9-.2,3.3.7,2.4,5.6,2.4,5.6c.2.5.1,1.1-.2,1.6-.5.7-1.1,1.4-1.7,2-.4.5-.4,1.2,0,1.7,1.1,1.6,2.3,3.2,3.7,4.6,1.8,1.5,3.8,2.7,6,3.5.3,0,.7,0,1-.3.4-.4,2.3-2.8,2.3-2.8.4-.5,1.1-.6,1.7-.3,1,.5,5.6,2.7,5.6,2.7.4.2.6.6.5,1,0,1.2-.3,2.4-1,3.4-1.4,1.6-3.4,2.6-5.5,2.7-2.9,0-9.8-2.4-13.5-6.1s-7-7.4-7.8-10.9-.6-5,.3-6.4Z"/>
    </g>
  </g>
</svg>